<svg width="61" height="20" viewBox="0 0 61 20" fill="none" xmlns="http://www.w3.org/2000/svg">
<g clip-path="url(#clip0_6001_9841)">
<path d="M29.5229 18.9693L30.2136 14.6234L30.8694 14.9323C32.3086 15.6542 33.9004 16.0081 35.5057 15.9631C36.9265 15.9631 38.4567 15.3652 38.4731 14.0676C38.4731 13.2227 37.8228 12.6049 35.9112 11.6571C34.0401 10.7303 31.5394 9.18575 31.5798 6.40549C31.5973 2.63645 35.0346 0.000126009 39.9136 0.000126009C41.4286 -0.00680891 42.9316 0.272562 44.3455 0.823909L43.6744 5.00483L43.2274 4.79889C42.0711 4.27442 40.8128 4.02121 39.5464 4.05815C37.5954 4.05815 36.7211 4.90297 36.7047 5.72675C36.7047 6.63247 37.7627 7.23038 39.4917 8.11616C42.3334 9.49578 43.6591 11.1854 43.6395 13.3888C43.6001 17.4059 40.224 20.0012 35.039 20.0012C33.1527 20.0104 31.2815 19.6604 29.5229 18.9693ZM56.4238 19.7089C56.4238 19.7089 55.9757 17.4845 55.8347 16.8046H49.4955C49.3119 17.3195 48.4583 19.7089 48.4583 19.7089H43.2679L50.6082 1.95772C50.7966 1.43401 51.1543 0.990247 51.6232 0.698568C52.0921 0.406889 52.6445 0.284439 53.1908 0.35112H57.0162L60.9989 19.7089H56.4238ZM50.9131 12.8507H55.0204C54.8171 11.883 53.8816 7.24809 53.8816 7.24809L53.5362 5.57949C53.2924 6.3003 52.8662 7.47507 52.8859 7.433C52.8859 7.43521 51.3197 11.7368 50.9131 12.8529V12.8507ZM21.4907 19.7089L24.5816 0.35112H29.5229L26.4331 19.7089H21.4907ZM9.59612 19.6901L5.16418 2.76046C8.3567 4.51277 10.7919 7.40521 11.9962 10.8754L12.5252 13.5527L17.3648 0.35112H22.5892L14.8226 19.6901H9.59612Z" fill="#00579F"/>
<path d="M8.03103 0.351321H0.0808759L0 0.74218C6.20143 2.34878 10.3087 6.22189 11.9963 10.8767L10.2683 1.98228C10.1626 1.47761 9.87473 1.03107 9.46115 0.730041C9.04757 0.429009 8.53799 0.295149 8.03213 0.354649L8.03103 0.351321Z" fill="#FAA61A"/>
</g>
<defs>
<clipPath id="clip0_6001_9841">
<rect width="61" height="20" fill="white"/>
</clipPath>
</defs>
</svg>
