<svg width="32" height="20" viewBox="0 0 32 20" fill="none" xmlns="http://www.w3.org/2000/svg">
<g clip-path="url(#clip0_6001_9836)">
<path d="M20.2838 2.10938H11.649V17.6262H20.2838V2.10938Z" fill="#F16022"/>
<path d="M12.197 9.86827C12.197 6.72034 13.6709 3.91674 15.9661 2.10983C14.2876 0.788419 12.1696 0 9.86759 0C4.41787 0 0 4.41816 0 9.86827C0 15.3183 4.41787 19.7365 9.86759 19.7365C12.1696 19.7365 14.2876 18.9481 15.9661 17.6267C13.6709 15.8197 12.197 13.0162 12.197 9.86827Z" fill="#E91D25"/>
<path d="M31.9321 9.86827C31.9321 15.3183 27.5142 19.7365 22.0645 19.7365C19.7625 19.7365 17.6445 18.9481 15.9659 17.6267C18.2612 15.8197 19.735 13.0162 19.735 9.86827C19.735 6.72034 18.2612 3.91674 15.9659 2.10983C17.6445 0.788419 19.7625 0 22.0645 0C27.5142 0 31.9321 4.41816 31.9321 9.86827ZM30.9906 15.9832V15.6655H31.1187V15.6008H30.7925V15.6655H30.9206V15.9832H30.9906ZM31.6239 15.9832V15.6002H31.524L31.4089 15.8636L31.2939 15.6002H31.1938V15.9832H31.2644V15.6943L31.3723 15.9434H31.4455L31.5534 15.6937V15.9832H31.6239Z" fill="#F69E1E"/>
</g>
<defs>
<clipPath id="clip0_6001_9836">
<rect width="32" height="20" fill="white"/>
</clipPath>
</defs>
</svg>
