<svg width="76" height="54" viewBox="0 0 76 54" fill="none" xmlns="http://www.w3.org/2000/svg">
<g clip-path="url(#clip0_2018_4046)">
<path d="M32.8471 53.0274C33.3409 53.3203 33.9199 53.4375 34.4902 53.3613C34.7753 53.3086 35.0486 53.209 35.3014 53.0684C35.7041 52.79 36.0568 52.4502 36.3507 52.0635C36.6094 51.7881 36.8445 51.4893 37.0532 51.1729C37.3707 50.6221 37.453 49.9688 37.2884 49.3565C36.9651 48.1348 35.7922 47.335 34.5342 47.4785C33.6612 47.6807 33.1909 48.1494 32.6177 48.8174C32.3767 49.0665 32.1562 49.336 31.9622 49.626C31.633 50.1797 31.5272 50.8389 31.6653 51.4658C31.8417 52.1192 32.2651 52.6788 32.8471 53.0274Z" fill="#0080DC"/>
<path d="M23.9408 39.1087C23.8291 38.3822 23.4323 37.7318 22.8385 37.2982C22.5828 37.1136 22.2918 36.9817 21.9832 36.9114L21.9127 36.8909C21.604 36.8265 21.2836 36.8118 20.9691 36.847C20.493 36.9173 20.0461 37.1341 19.6993 37.4681C19.4818 37.723 19.2849 37.9896 19.1115 38.2737L18.4384 39.2083C18.3502 39.3401 18.2826 39.4837 18.2355 39.636L18.212 39.7005C18.0739 40.2923 18.1709 40.9163 18.4854 41.4378C18.8616 42.0882 19.473 42.5686 20.1961 42.7796C20.5253 42.8616 20.8662 42.888 21.2042 42.8616C21.7039 42.8089 22.1566 42.5423 22.4446 42.1321L23.1794 41.1273C23.6703 40.5121 24.0819 39.9349 23.9408 39.1087Z" fill="#0080DC"/>
<path d="M28.1825 49.3971C28.6439 49.7106 29.1995 49.863 29.758 49.8249C30.1754 49.7751 30.5751 49.6286 30.9279 49.4001C31.307 49.0866 31.6451 48.7262 31.936 48.3278C32.1947 48.0202 32.4739 47.7184 32.712 47.3903C33.0647 46.8835 33.2058 46.2624 33.1088 45.6559C32.8766 44.4284 31.7625 43.567 30.5104 43.6461C30.1636 43.6784 29.8314 43.7838 29.5287 43.9567C29.123 44.2555 28.7674 44.6159 28.4764 45.026L27.4476 46.2975H27.4506C27.1596 46.6549 27.039 47.1179 27.1125 47.5719C27.2125 48.2955 27.5975 48.9518 28.1825 49.3971Z" fill="#0080DC"/>
<path d="M23.6879 45.9144C24.2435 46.304 24.9107 46.5003 25.5867 46.4769C25.9218 46.4359 26.2393 46.3216 26.5244 46.14C26.8801 45.8441 27.1857 45.4925 27.4297 45.097L28.382 43.7962C28.6671 43.3831 28.7612 42.8675 28.6407 42.3812C28.5025 41.6868 28.1028 41.0745 27.5237 40.6703C27.0123 40.3304 26.4038 40.1693 25.7924 40.2074C25.1663 40.2455 24.5902 40.5677 24.2316 41.0805L23.2969 42.3813H23.2999C23.0618 42.6596 22.8589 42.9672 22.6973 43.2954C22.5944 43.5502 22.5621 43.8256 22.6032 44.0981C22.712 44.8217 23.1001 45.4749 23.6879 45.9144Z" fill="#0080DC"/>
<path d="M50.4068 10.7784L50.3275 10.7959C49.3839 11.0127 48.2111 10.7959 47.2588 10.6875C45.9655 10.5411 44.5928 10.333 43.2936 10.4444C41.7005 10.5323 40.0427 10.7784 38.6083 11.5196H38.6053C38.0057 11.8184 37.4443 12.1846 36.9269 12.6094C36.5066 12.9639 36.1274 13.374 35.7365 13.7608L33.7936 15.6944L30.6632 18.7529C30.093 19.3125 29.4669 19.8604 28.9348 20.458C28.3822 21.0527 28.1118 21.8555 28.1912 22.664C28.2441 23.373 28.5733 24.0322 29.1112 24.4951C29.6227 24.9258 30.2899 25.122 30.9512 25.04C31.401 24.9814 31.8301 24.8261 32.2122 24.583C33.1823 23.9941 34.07 23.1328 34.94 22.4003L38.8581 19.1894L39.5312 18.6152C39.5871 18.5595 39.6488 18.5097 39.7164 18.4629C39.7164 18.4629 39.7399 18.4629 39.7487 18.4863L39.9222 18.6035L48.5726 24.4687L55.4624 29.1591L58.2196 31.0341C58.7369 31.4384 59.2836 31.8075 59.8509 32.1387L62.2024 29.9912L51.1004 10.5294C50.877 10.6349 50.6449 10.7198 50.4068 10.7784Z" fill="#0080DC"/>
<path d="M1.61957 25.4153C1.9135 25.6584 2.22801 25.8782 2.56016 26.0686L4.15037 27.0734L10.4289 31.0256L10.8051 30.3547L24.3647 7.33641L13.745 0.668457L5.03588 15.4457L2.07301 20.4701H2.07007C1.64386 21.1146 1.25589 21.7855 0.914872 22.4799C0.723811 23.0131 0.700296 23.5873 0.844327 24.1351C0.970721 24.6273 1.24043 25.0725 1.61957 25.4153Z" fill="#0094FF"/>
<path d="M75.8676 24.264C76.1057 23.5257 76.0145 22.72 75.6236 22.0492L63.2604 0.586426L63.1576 0.606934L52.4814 7.21338L65.8288 30.6066L66.0493 30.9963L67.854 29.924L70.9874 28.0256L73.2419 26.6604C73.9121 26.3059 74.547 25.8928 75.1407 25.4241C75.4846 25.1106 75.7345 24.7092 75.8667 24.2639L75.8676 24.264Z" fill="#0080DC"/>
<path d="M27.3006 19.5818C28.006 18.7116 28.9261 17.9646 29.7314 17.1736L33.2675 13.699C34.1111 12.8259 34.9988 11.9939 35.9276 11.2117C36.2421 10.9421 36.5802 10.7019 36.9358 10.491L37.2709 10.3093H36.8476C35.6895 10.3826 34.5343 10.5232 33.3909 10.74C31.3333 11.1414 29.1229 11.8767 27.0301 11.3259C26.5745 11.1912 26.1366 11.0183 25.7162 10.8015L14.1943 30.504L19.0854 36.1994C19.1295 36.2492 19.1178 36.2609 19.1854 36.2638C19.8526 35.6632 20.7373 35.3615 21.6309 35.423C22.7185 35.508 23.7237 36.0207 24.4321 36.8468C24.9083 37.3946 25.2052 38.0743 25.2846 38.7951C26.3545 38.5841 27.4655 38.8214 28.3532 39.4513C29.2438 40.0812 29.8347 41.0451 29.9905 42.1232L30.014 42.4308C30.9105 42.1759 31.8746 42.299 32.68 42.7707C33.5736 43.2921 34.2202 44.1505 34.4759 45.1525C34.5641 45.5099 34.6082 45.8761 34.6082 46.2453C35.6869 46.2658 36.7099 46.714 37.4535 47.4933C38.0825 48.1144 38.4381 48.9582 38.4411 49.84C38.4411 50.0246 38.3911 50.2121 38.3999 50.3996L40.5898 52.0285L40.5927 52.0256C41.1247 52.4826 41.7038 52.8781 42.3211 53.2121C42.7091 53.3761 43.1353 53.4377 43.5527 53.3849C44.2405 53.3 44.8636 52.9367 45.2751 52.3801C45.6631 51.8674 45.8248 51.217 45.7249 50.5783C45.5808 49.7492 45.0929 49.0198 44.3815 48.5686L40.9337 46.134H40.9308C40.2488 45.7121 39.5934 45.2404 38.9761 44.7248C38.7644 44.5461 38.6145 44.3059 38.5469 44.0363C38.5116 43.8371 38.5557 43.6291 38.6704 43.4592C38.8232 43.2365 39.0731 43.0959 39.3435 43.0754C39.5581 43.0402 39.7785 43.0695 39.9754 43.1604C40.6074 43.5031 41.2041 43.9104 41.7567 44.3733L45.9159 47.3879L47.3326 48.4104H47.3356C47.6853 48.6799 48.0498 48.9348 48.426 49.1691C48.6347 49.2922 48.8611 49.3771 49.0992 49.4182H49.1638H49.1609C49.7987 49.5061 50.4454 49.342 50.9598 48.9582C51.4977 48.5832 51.868 48.0149 51.9856 47.3703C52.1032 46.7404 51.9474 46.0871 51.5565 45.5774C51.2419 45.2492 50.8833 44.965 50.4894 44.7336L48.6818 43.4797L43.5497 39.8176C43.0176 39.4396 42.2299 39.0295 42.1241 38.3293V38.3322C42.1006 38.1066 42.1682 37.881 42.3093 37.7023C42.4768 37.5031 42.7208 37.3801 42.9824 37.3683C43.2264 37.3683 43.4644 37.4328 43.6731 37.5529C43.9553 37.7111 44.2199 37.9221 44.4903 38.1096L46.1716 39.3195L51.2684 42.8352L52.4853 43.676C52.8939 44.01 53.3583 44.2678 53.8609 44.4289C54.6575 44.5988 55.4834 44.3439 56.0477 43.7609C56.5504 43.2746 56.8326 42.6037 56.8326 41.9064C56.8002 41.3117 56.5386 40.7492 56.0977 40.342C55.2924 39.7062 54.4517 39.1145 53.5816 38.5724L48.573 35.0891L47.312 34.2189L47.3149 34.216C47.0269 34.0402 46.7506 33.841 46.4949 33.6213C46.2862 33.425 46.1569 33.1613 46.1216 32.88C46.101 32.634 46.1892 32.3879 46.3626 32.2091C46.5419 32.0334 46.7829 31.9367 47.0357 31.9425C47.3267 31.9601 47.606 32.0568 47.844 32.2238C48.6553 32.7013 49.4136 33.3312 50.1955 33.8673L55.3159 37.3507L56.6974 38.2911L56.7003 38.2941C57.0089 38.5314 57.3646 38.7072 57.7408 38.8068C58.3551 38.9093 59.0106 38.5431 59.4456 38.1359C60.0335 37.5968 60.395 36.8527 60.4538 36.0587C60.4685 35.3732 60.201 34.7111 59.7131 34.2277C59.3074 33.8761 58.8724 33.5568 58.4138 33.2726L55.5156 31.2863L49.8603 27.4338L40.0104 20.7951C39.5989 21.0793 39.208 21.3898 38.8376 21.7268L36.0099 23.8976L34.3845 25.1603C33.7437 25.7228 33.0294 26.1945 32.2593 26.5637C31.3922 26.924 30.431 27.0002 29.5198 26.7746C28.4411 26.4875 27.5211 25.7844 26.9656 24.8176C26.3189 23.7043 26.1455 22.3771 26.4894 21.132C26.654 20.5665 26.9302 20.0388 27.3006 19.5818Z" fill="#0094FF"/>
</g>
<defs>
<clipPath id="clip0_2018_4046">
<rect width="76" height="54" fill="white"/>
</clipPath>
</defs>
</svg>
