<svg width="54" height="54" viewBox="0 0 54 54" fill="none" xmlns="http://www.w3.org/2000/svg">
<g clip-path="url(#clip0_2018_4065)">
<path d="M44.91 13.2504H23.91L35.9 7.40035L38.18 6.29035C38.8963 5.94465 39.7205 5.89682 40.472 6.15732C41.2235 6.41783 41.8413 6.96546 42.19 7.68035L44.91 13.2504Z" fill="#0080DC"/>
<path d="M34.51 5.86022L19.35 13.2502H13.54L26.57 1.51022C26.8621 1.24602 27.2036 1.04228 27.5748 0.910754C27.946 0.779227 28.3396 0.722519 28.7329 0.743902C29.1262 0.765285 29.5113 0.864336 29.8661 1.03534C30.2209 1.20634 30.5383 1.44591 30.8 1.74022L34.51 5.86022Z" fill="#0080DC"/>
<path d="M37.94 37.8802C37.9423 38.6752 38.2591 39.4369 38.8213 39.999C39.3834 40.5611 40.1451 40.8779 40.94 40.8802H52.82V50.2602C52.8194 51.0557 52.5031 51.8184 51.9406 52.3809C51.3781 52.9433 50.6155 53.2596 49.82 53.2602H3.06C2.26454 53.2596 1.50184 52.9433 0.939371 52.3809C0.376898 51.8184 0.0606252 51.0557 0.0599976 50.2602V18.2502C0.0606146 17.4548 0.376883 16.6921 0.939359 16.1296C1.50183 15.5671 2.26454 15.2509 3.06 15.2502H49.82C50.6155 15.2509 51.3782 15.5671 51.9406 16.1296C52.5031 16.6921 52.8194 17.4548 52.82 18.2502V26.8802H40.94C40.1451 26.8826 39.3833 27.1994 38.8212 27.7615C38.2591 28.3236 37.9423 29.0853 37.94 29.8802V37.8802Z" fill="#0094FF"/>
<path d="M52.94 28.8801H40.94C40.675 28.8809 40.4211 28.9865 40.2338 29.1739C40.0464 29.3613 39.9408 29.6152 39.94 29.8801V37.8801C39.9408 38.1451 40.0464 38.399 40.2338 38.5864C40.4211 38.7737 40.675 38.8793 40.94 38.8801H52.94C53.205 38.8793 53.4589 38.7737 53.6462 38.5864C53.8336 38.399 53.9392 38.1451 53.94 37.8801V29.8801C53.9392 29.6152 53.8336 29.3613 53.6462 29.1739C53.4589 28.9865 53.205 28.8809 52.94 28.8801ZM44.94 36.8801C44.3467 36.8801 43.7666 36.7042 43.2733 36.3745C42.7799 36.0449 42.3954 35.5764 42.1684 35.0282C41.9413 34.48 41.8819 33.8768 41.9976 33.2949C42.1134 32.7129 42.3991 32.1784 42.8187 31.7588C43.2382 31.3393 43.7728 31.0535 44.3547 30.9378C44.9367 30.822 45.5399 30.8814 46.0881 31.1085C46.6362 31.3356 47.1048 31.7201 47.4344 32.2134C47.7641 32.7068 47.94 33.2868 47.94 33.8801C47.9377 34.6751 47.6209 35.4368 47.0588 35.9989C46.4966 36.561 45.7349 36.8778 44.94 36.8801Z" fill="#0080DC"/>
<path d="M45.94 33.8801C45.94 34.0779 45.8814 34.2713 45.7715 34.4357C45.6616 34.6001 45.5054 34.7283 45.3227 34.804C45.14 34.8797 44.9389 34.8995 44.7449 34.8609C44.5509 34.8223 44.3728 34.7271 44.2329 34.5872C44.093 34.4474 43.9978 34.2692 43.9592 34.0752C43.9206 33.8812 43.9404 33.6802 44.0161 33.4974C44.0918 33.3147 44.22 33.1585 44.3844 33.0487C44.5489 32.9388 44.7422 32.8801 44.94 32.8801C45.205 32.8809 45.4589 32.9865 45.6462 33.1739C45.8336 33.3613 45.9392 33.6152 45.94 33.8801Z" fill="#0094FF"/>
</g>
<defs>
<clipPath id="clip0_2018_4065">
<rect width="54" height="54" fill="white"/>
</clipPath>
</defs>
</svg>
