<svg width="58" height="54" viewBox="0 0 58 54" fill="none" xmlns="http://www.w3.org/2000/svg">
<g clip-path="url(#clip0_2018_4030)">
<path d="M36.4073 0.121582H4.40292C1.97127 0.121582 0 2.06595 0 4.47041V28.2665C0 30.671 1.97127 32.6154 4.40292 32.6154H8.89394V43.3227L20.5545 32.6154H36.4077C38.8364 32.6154 40.8106 30.6714 40.8106 28.2665V4.47041C40.8102 2.06595 38.8361 0.121582 36.4073 0.121582ZM20.3725 27.6864C19.4293 27.6864 18.668 26.9202 18.668 25.9708C18.668 25.0243 19.4293 24.2552 20.3725 24.2552C21.3128 24.2552 22.077 25.0243 22.077 25.9708C22.077 26.9202 21.3128 27.6864 20.3725 27.6864ZM23.4744 17.4851C22.4888 18.0427 21.878 19.1004 21.878 20.2497V20.7445C21.878 21.5337 21.2418 22.174 20.4577 22.174C19.6736 22.174 19.0374 21.5337 19.0374 20.7445V20.2497C19.0374 18.0656 20.205 16.0527 22.0882 14.992C23.3098 14.3028 24.0341 12.9677 23.9772 11.5097C23.9003 9.56538 22.392 7.98442 20.5429 7.90999C19.5913 7.87277 18.6851 8.2245 17.9865 8.8995C17.2535 9.61135 16.8305 10.6206 16.8305 11.6699C16.8305 12.462 16.1943 13.0995 15.4102 13.0995C14.6262 13.0995 13.99 12.462 13.99 11.6699C13.99 9.84851 14.7313 8.08731 16.0181 6.83801C17.2793 5.6201 18.924 4.9856 20.6567 5.05419C23.9743 5.18554 26.6785 7.97055 26.8148 11.3955C26.9142 13.9368 25.636 16.2698 23.4744 17.4851Z" fill="#0094FF"/>
<path d="M52.1728 12.7317H43.7236V28.2654C43.7236 32.2801 40.443 35.5471 36.4077 35.5471H21.6855L17.5511 39.3446C18.3729 41.5794 20.5113 43.1716 23.0169 43.1716H37.4448L49.105 53.8782V43.1716C49.105 43.1716 50.4774 43.1804 52.1438 43.1891C55.3719 43.2067 58 40.5734 58 37.3239V18.5969C58 15.3565 55.3925 12.7317 52.1728 12.7317Z" fill="#0080DC"/>
</g>
<defs>
<clipPath id="clip0_2018_4030">
<rect width="58" height="54" fill="white"/>
</clipPath>
</defs>
</svg>
