<svg width="46" height="54" viewBox="0 0 46 54" fill="none" xmlns="http://www.w3.org/2000/svg">
<g clip-path="url(#clip0_2014_3963)">
<path d="M11.9802 8.04297V54.0001H45.9723V8.04297H11.9802ZM26.6682 48.6728C26.6682 49.1037 26.3188 49.4516 25.8858 49.4516H17.8168C17.3839 49.4516 17.0344 49.1037 17.0344 48.6728V40.6922C17.0344 40.2612 17.3839 39.9134 17.8168 39.9134H25.8858C26.3188 39.9134 26.6682 40.2612 26.6682 40.6922V48.6728ZM26.6682 35.0118C26.6682 35.4428 26.3188 35.7907 25.8858 35.7907H17.8168C17.3839 35.7907 17.0344 35.4428 17.0344 35.0118V27.0312C17.0344 26.6003 17.3839 26.2524 17.8168 26.2524H25.8858C26.3188 26.2524 26.6682 26.6003 26.6682 27.0312V35.0118ZM26.6682 21.3509C26.6682 21.7818 26.3188 22.1297 25.8858 22.1297H17.8168C17.3839 22.1297 17.0344 21.7818 17.0344 21.3509V13.3703C17.0344 12.9393 17.3839 12.5914 17.8168 12.5914H25.8858C26.3188 12.5914 26.6682 12.9393 26.6682 13.3703V21.3509ZM40.1357 46.7309H32.0197C30.987 46.7309 30.987 45.1732 32.0197 45.1732H40.1357C41.1684 45.1732 41.1684 46.7309 40.1357 46.7309ZM40.1357 42.0318H32.0197C30.987 42.0318 30.987 40.4741 32.0197 40.4741H40.1357C41.1684 40.4741 41.1684 42.0318 40.1357 42.0318ZM40.1357 33.0699H32.0197C30.987 33.0699 30.987 31.5122 32.0197 31.5122H40.1357C41.1684 31.5122 41.1684 33.0699 40.1357 33.0699ZM40.1357 28.3709H32.0197C30.987 28.3709 30.987 26.8132 32.0197 26.8132H40.1357C41.1684 26.8132 41.1684 28.3709 40.1357 28.3709ZM40.1357 19.4089H32.0197C30.987 19.4089 30.987 17.8512 32.0197 17.8512H40.1357C41.1684 17.8512 41.1684 19.4089 40.1357 19.4089ZM40.1357 14.7099H32.0197C30.987 14.7099 30.987 13.1522 32.0197 13.1522H40.1357C41.1684 13.1522 41.1684 14.7099 40.1357 14.7099Z" fill="#0094FF"/>
<path d="M0.5 45.9571H10.4154V7.26404C10.4154 6.92654 10.6502 6.62538 10.9475 6.52673L30.481 0H0.5V45.9571Z" fill="#0080DC"/>
<path d="M34.4921 6.48524V0.306396L15.986 6.48524H34.4921Z" fill="#0080DC"/>
<path d="M25.1034 14.1492H18.5992V20.5721H25.1034V14.1492Z" fill="#0094FF"/>
<path d="M25.1034 27.8098H18.5992V34.2327H25.1034V27.8098Z" fill="#0094FF"/>
<path d="M25.1034 41.4709H18.5992V47.8938H25.1034V41.4709Z" fill="#0094FF"/>
</g>
<defs>
<clipPath id="clip0_2014_3963">
<rect width="46" height="54" fill="white"/>
</clipPath>
</defs>
</svg>
