<svg width="52" height="54" viewBox="0 0 52 54" fill="none" xmlns="http://www.w3.org/2000/svg">
<g clip-path="url(#clip0_2018_4094)">
<path d="M46.6206 30.6001H50.5655V30.1501C50.3862 28.0801 48.6827 26.3701 46.6206 26.1001V30.6001ZM50.7448 32.4001H46.6206V46.8001C49.5793 46.5301 51.8206 43.9201 51.5517 40.9501C51.5517 40.9501 51.5517 40.9501 51.5517 40.8601L50.7448 32.4001ZM5.37927 26.1901C3.3172 26.4601 1.70341 28.1701 1.5241 30.2401V30.6001H5.37927V26.1901ZM0.448236 40.8601C0.17927 43.8301 2.33099 46.4401 5.28961 46.8001H5.37927V32.4001H1.25513L0.448236 40.8601Z" fill="#0080DC"/>
<path d="M27.7931 30.6H24.2068V28.8H27.7931V30.6ZM17.7517 32.94C23.2206 32.58 28.7793 32.58 34.2482 32.94L37.7448 33.21C38.1931 33.21 38.5517 33.66 38.5517 34.11V44.82C38.5517 45.54 38.1931 46.26 37.6551 46.8C37.1172 47.34 36.4 47.61 35.5931 47.52L34.2482 47.43C28.6896 47.07 23.131 47.07 17.5724 47.43L16.2275 47.52C15.5103 47.61 14.7931 47.34 14.1655 46.8C13.6275 46.26 13.2689 45.54 13.2689 44.82V34.11C13.2689 33.66 13.6275 33.21 14.0758 33.21L17.7517 32.94ZM17.8413 34.74L16.0482 34.83C15.5103 34.83 15.1517 35.28 15.2413 35.82C15.331 36.36 15.6896 36.72 16.2275 36.63L18.0206 36.54C23.3103 36.18 28.6896 36.18 33.9793 36.54L35.7724 36.63H35.862C36.3999 36.63 36.7586 36.27 36.7586 35.73C36.7586 35.19 36.3999 34.83 35.862 34.83L34.0689 34.74C28.6896 34.38 23.3103 34.38 17.8413 34.74ZM24.2068 21.6V27H27.7931V21.6H24.2068ZM36.7586 21.6H29.5862V30.96C31.1999 30.96 32.7241 31.05 34.3379 31.14L37.8344 31.41C39.2689 31.5 40.3448 32.67 40.3448 34.11V44.73C40.3448 47.25 38.3724 49.23 35.862 49.23H35.5931L34.2482 49.14C28.7793 48.78 23.2206 48.78 17.7517 49.14L16.4068 49.23C13.8965 49.41 11.8344 47.52 11.6551 45C11.6551 44.91 11.6551 44.82 11.6551 44.73V34.11C11.6551 32.67 12.731 31.5 14.1655 31.41L17.662 31.14C19.2758 31.05 20.7999 30.96 22.4137 30.96V21.6H15.2413C12.0137 21.6 9.05512 19.98 7.17236 17.37V45.9C7.17236 50.4 10.7586 54 15.2413 54H36.7586C41.2413 54 44.8275 50.4 44.8275 45.9V17.37C42.9448 19.98 39.9862 21.6 36.7586 21.6ZM24.2068 0V19.8H27.7931V0H24.2068ZM22.4137 19.8V0H11.6551C9.14478 0 7.17236 1.98 7.17236 4.5V11.7C7.17236 16.2 10.7586 19.8 15.2413 19.8H22.4137ZM40.3448 0H29.5862V19.8H36.7586C41.2413 19.8 44.8275 16.2 44.8275 11.7V4.5C44.8275 1.98 42.8551 0 40.3448 0Z" fill="#0094FF"/>
<path d="M17.7517 32.9399C23.2206 32.5799 28.7793 32.5799 34.2482 32.9399L37.7448 33.2099C38.1931 33.2099 38.5517 33.6599 38.5517 34.1099V44.8199C38.5517 45.5399 38.1931 46.2599 37.6551 46.7999C37.1172 47.3399 36.4 47.6099 35.5931 47.5199L34.2482 47.4299C28.6896 47.0699 23.131 47.0699 17.5724 47.4299L16.2275 47.5199C15.5103 47.6099 14.7931 47.3399 14.1655 46.7999C13.6275 46.2599 13.2689 45.5399 13.2689 44.8199V34.1099C13.2689 33.6599 13.6275 33.2099 14.0758 33.2099L17.7517 32.9399ZM17.8413 34.7399L16.0482 34.8299C15.5103 34.8299 15.1517 35.2799 15.2413 35.8199C15.331 36.3599 15.6896 36.7199 16.2275 36.6299L18.0206 36.5399C23.3103 36.1799 28.6896 36.1799 33.9793 36.5399L35.7724 36.6299H35.862C36.4 36.6299 36.7586 36.2699 36.7586 35.7299C36.7586 35.1899 36.4 34.8299 35.862 34.8299L34.0689 34.7399C28.6896 34.3799 23.3103 34.3799 17.8413 34.7399Z" fill="#0080DC"/>
</g>
<defs>
<clipPath id="clip0_2018_4094">
<rect width="52" height="54" fill="white"/>
</clipPath>
</defs>
</svg>
