<svg width="477" height="400" viewBox="0 0 477 400" fill="none" xmlns="http://www.w3.org/2000/svg">
<g clip-path="url(#clip0_2271_12259)">
<path d="M423.501 262.161H251.065C249.583 262.158 248.163 261.569 247.115 260.522C246.067 259.475 245.477 258.055 245.475 256.574V5.58641C245.477 4.10557 246.067 2.68611 247.115 1.63901C248.163 0.591898 249.583 0.00252057 251.065 0H423.501C424.982 0.00252057 426.403 0.591898 427.451 1.63901C428.499 2.68611 429.088 4.10557 429.091 5.58641V256.574C429.088 258.055 428.499 259.475 427.451 260.522C426.403 261.569 424.982 262.158 423.501 262.161ZM251.065 0.238328C249.646 0.240848 248.287 0.805113 247.283 1.80753C246.28 2.80994 245.716 4.16878 245.713 5.58641V256.574C245.716 257.992 246.28 259.351 247.283 260.353C248.287 261.356 249.646 261.92 251.065 261.922H423.501C424.203 261.922 424.899 261.784 425.549 261.515C426.198 261.246 426.788 260.853 427.285 260.356C427.782 259.859 428.176 259.27 428.445 258.621C428.714 257.972 428.852 257.277 428.852 256.574V5.58641C428.852 4.16801 428.289 2.8077 427.285 1.80474C426.281 0.801785 424.92 0.238328 423.501 0.238328H251.065Z" fill="#E0E0E0"/>
<path d="M224.657 262.161H52.2308C50.7473 262.161 49.3243 261.572 48.2744 260.525C47.2245 259.478 46.6334 258.057 46.6309 256.574V5.58641C46.6334 4.10392 47.2245 2.68302 48.2744 1.63564C49.3243 0.588261 50.7473 -2.15121e-06 52.2308 0H224.657C226.139 0 227.561 0.588566 228.61 1.63622C229.658 2.68387 230.247 4.1048 230.247 5.58641V256.574C230.247 258.056 229.658 259.477 228.61 260.524C227.561 261.572 226.139 262.161 224.657 262.161ZM52.2308 0.238328C50.8105 0.238326 49.4483 0.80148 48.4431 1.80417C47.4379 2.80685 46.8719 4.16713 46.8694 5.58641V256.574C46.8719 257.994 47.4379 259.354 48.4431 260.357C49.4483 261.359 50.8105 261.922 52.2308 261.922H224.657C225.36 261.922 226.056 261.784 226.705 261.515C227.354 261.246 227.944 260.853 228.441 260.356C228.938 259.859 229.332 259.27 229.601 258.621C229.87 257.972 230.009 257.277 230.009 256.574V5.58641C230.009 4.88409 229.87 4.18864 229.601 3.53979C229.332 2.89093 228.938 2.30136 228.441 1.80474C227.944 1.30813 227.354 0.914193 226.705 0.645427C226.056 0.37666 225.36 0.238328 224.657 0.238328H52.2308Z" fill="#E0E0E0"/>
<path d="M477 320.379H0V320.618H477V320.379Z" fill="#E0E0E0"/>
<path d="M64.6142 333.974H49.293V334.212H64.6142V333.974Z" fill="#E0E0E0"/>
<path d="M213.581 331.39H162.514V331.628H213.581V331.39Z" fill="#E0E0E0"/>
<path d="M100.151 342.83H65.5684V343.068H100.151V342.83Z" fill="#E0E0E0"/>
<path d="M402.149 331.266H360.945V331.505H402.149V331.266Z" fill="#E0E0E0"/>
<path d="M416.687 331.266H410.648V331.505H416.687V331.266Z" fill="#E0E0E0"/>
<path d="M353.075 337.205H301.664V337.444H353.075V337.205Z" fill="#E0E0E0"/>
<path d="M66.6659 307.767C66.894 307.151 67.2774 306.605 67.7787 306.181C68.2801 305.757 68.8826 305.469 69.5279 305.346C70.4901 305.157 71.4867 305.26 72.3899 305.641C72.979 305.849 73.5301 306.152 74.0213 306.537C73.9021 305.925 73.8795 305.298 73.9545 304.678C74.0177 303.705 74.3698 302.772 74.9657 302C75.3655 301.486 75.8901 301.083 76.4895 300.83C77.089 300.576 77.7434 300.48 78.3906 300.551C79.0796 300.706 79.712 301.049 80.2172 301.542C80.7225 302.035 81.081 302.659 81.2526 303.344C81.6401 304.744 81.7022 306.215 81.4339 307.643C81.1482 310.152 80.3736 312.581 79.1538 314.793C76.6272 314.912 74.1026 314.52 71.7317 313.639C70.3143 313.25 69.0076 312.535 67.9157 311.552C67.3783 311.097 66.9772 310.503 66.7566 309.836C66.5361 309.168 66.5047 308.452 66.6659 307.767Z" fill="#EBEBEB"/>
<path d="M428.18 168.361L342.266 195.249L360.311 252.827L446.225 225.939L428.18 168.361Z" fill="#EBEBEB"/>
<path d="M343.078 195.648C343.078 195.648 395.023 218.68 396.636 218.175C398.248 217.67 427.765 169.013 427.765 169.013" stroke="#FAFAFA" stroke-linecap="round" stroke-linejoin="round"/>
<path d="M360.326 252.799L379.378 211.416" stroke="#FAFAFA" stroke-miterlimit="10"/>
<path d="M446.224 225.906L406.719 203.675" stroke="#FAFAFA" stroke-miterlimit="10"/>
<path d="M104.382 215.471L43.0723 185.205L22.7565 226.299L84.066 256.565L104.382 215.471Z" fill="#EBEBEB"/>
<path d="M43.2832 185.829C43.2832 185.829 59.7206 225.725 60.875 226.288C62.0293 226.85 103.805 215.601 103.805 215.601" stroke="#FAFAFA" stroke-linecap="round" stroke-linejoin="round"/>
<path d="M22.7441 226.297L54.9416 213.551" stroke="#FAFAFA" stroke-miterlimit="10"/>
<path d="M84.0576 256.565L74.0215 223.637" stroke="#FAFAFA" stroke-miterlimit="10"/>
<path d="M341.594 46.4718L267.506 39.6429L262.922 89.2998L337.01 96.1287L341.594 46.4718Z" fill="#EBEBEB"/>
<path d="M267.979 40.2297C267.979 40.2297 300.252 74.3297 301.645 74.4536C303.038 74.5776 341.055 46.8648 341.055 46.8648" stroke="#FAFAFA" stroke-linecap="round" stroke-linejoin="round"/>
<path d="M262.912 89.3062L290.635 63.8051" stroke="#FAFAFA" stroke-miterlimit="10"/>
<path d="M337 96.1319L313.951 66.6079" stroke="#FAFAFA" stroke-miterlimit="10"/>
<path d="M378.795 104.33C379.714 104.118 380.673 104.148 381.578 104.417C382.483 104.686 383.302 105.185 383.956 105.865C384.948 106.872 385.613 108.154 385.864 109.545C386.076 110.424 386.144 111.332 386.064 112.233C386.714 111.601 387.462 111.076 388.278 110.679C389.505 109.991 390.91 109.682 392.313 109.793C393.253 109.871 394.157 110.191 394.937 110.72C395.718 111.249 396.348 111.971 396.768 112.815C397.655 114.636 396.883 116.866 395.614 118.449C394.219 120.026 392.483 121.264 390.539 122.072C386.818 123.702 383.689 124.779 380.045 124.931C377.411 121.166 376.706 118.945 375.599 115.036C374.986 113.023 374.843 110.897 375.179 108.821C375.589 106.819 376.83 104.798 378.795 104.33Z" fill="#EBEBEB"/>
<path d="M76.7017 46.9029C76.9298 46.2873 77.3131 45.7409 77.8145 45.3167C78.3159 44.8925 78.9184 44.6048 79.5637 44.4815C80.5261 44.2976 81.5213 44.4004 82.4257 44.7771C83.016 44.9887 83.5696 45.291 84.0666 45.6732C83.9289 45.054 83.8903 44.4169 83.9521 43.7856C84.0086 42.829 84.3398 41.9088 84.9061 41.1354C85.3069 40.6238 85.832 40.2229 86.4314 39.971C87.0308 39.7191 87.6847 39.6244 88.331 39.6959C89.0188 39.8504 89.6503 40.1924 90.1555 40.6837C90.6607 41.1751 91.0198 41.7967 91.193 42.4796C91.5852 43.8825 91.6504 45.3565 91.3838 46.7885C91.0935 49.295 90.3157 51.7206 89.0942 53.9288C86.5686 54.0454 84.0451 53.6565 81.6721 52.7849C80.2756 52.3811 78.9899 51.6637 77.9133 50.6876C77.3827 50.229 76.9889 49.6331 76.7752 48.9654C76.5615 48.2978 76.536 47.5841 76.7017 46.9029Z" fill="#EBEBEB"/>
<path d="M394.841 40.9257C395.069 40.31 395.453 39.7636 395.954 39.3394C396.455 38.9152 397.058 38.6275 397.703 38.5042C398.666 38.3209 399.661 38.4237 400.565 38.7998C401.15 39.0176 401.699 39.3195 402.197 39.6959C402.072 39.068 402.05 38.4243 402.13 37.7893C402.193 36.8187 402.545 35.8892 403.141 35.12C403.537 34.6023 404.061 34.1966 404.662 33.9425C405.262 33.6885 405.918 33.5949 406.566 33.671C407.255 33.8262 407.887 34.1696 408.393 34.6627C408.898 35.1559 409.256 35.7795 409.428 36.4642C409.824 37.8632 409.889 39.335 409.619 40.7636C409.333 43.271 408.555 45.6974 407.329 47.9039C404.807 48.0205 402.286 47.6315 399.917 46.7599C398.517 46.3575 397.228 45.64 396.148 44.6626C395.609 44.2189 395.202 43.6358 394.971 42.9769C394.741 42.3179 394.696 41.6084 394.841 40.9257Z" fill="#EBEBEB"/>
<path d="M435.301 394.156C435.301 397.378 346.083 400 236.03 400C125.976 400 36.7676 397.378 36.7676 394.156C36.7676 390.934 125.976 388.303 236.03 388.303C346.083 388.303 435.301 390.924 435.301 394.156Z" fill="#EDEDED"/>
<path d="M358.637 342.992L153.088 324.059C152.476 324.003 151.882 323.827 151.339 323.541C150.795 323.255 150.314 322.865 149.921 322.393C149.529 321.922 149.233 321.377 149.052 320.791C148.87 320.205 148.805 319.589 148.862 318.978L161.865 178.155L267.215 112.758C269.096 111.584 271.304 111.043 273.516 111.215C275.727 111.386 277.825 112.261 279.502 113.711L376.725 197.927L363.721 338.797C363.598 340.025 362.995 341.155 362.043 341.94C361.09 342.726 359.866 343.104 358.637 342.992Z" fill="#407BFF"/>
<path opacity="0.2" d="M358.637 342.992L153.088 324.059C152.476 324.003 151.882 323.827 151.339 323.541C150.795 323.255 150.314 322.865 149.921 322.393C149.529 321.922 149.233 321.377 149.052 320.791C148.87 320.205 148.805 319.589 148.862 318.978L161.865 178.155L267.215 112.758C269.096 111.584 271.304 111.043 273.516 111.215C275.727 111.386 277.825 112.261 279.502 113.711L376.725 197.927L363.721 338.797C363.598 340.025 362.995 341.155 362.043 341.94C361.09 342.726 359.866 343.104 358.637 342.992Z" fill="black"/>
<path d="M376.725 197.946L363.722 338.816C363.604 339.954 363.072 341.009 362.229 341.781C361.385 342.554 360.287 342.992 359.143 343.011H358.676L153.089 324.059H152.612C151.493 323.826 150.499 323.192 149.816 322.278C149.132 321.363 148.807 320.23 148.901 319.092L161.913 178.222L247.601 249.701L252.286 253.648L259.803 259.939L268.799 255.173L274.409 252.17L376.725 197.946Z" fill="#407BFF"/>
<path opacity="0.2" d="M363.883 336.977L363.759 338.359C363.689 339.563 363.181 340.699 362.331 341.554C361.48 342.41 360.346 342.924 359.142 343.001H358.674L153.087 324.04H152.61C151.447 323.737 150.434 323.021 149.76 322.027C149.086 321.032 148.797 319.827 148.947 318.635L149.071 317.233L247.6 249.701L252.284 253.648L259.802 259.939L268.798 255.173L274.408 252.17L363.883 336.977Z" fill="black"/>
<path d="M357.703 208.022L274.409 252.17L248.26 250.244L179.381 192.721L186.374 116.971L364.59 133.406L357.703 208.022Z" fill="#407BFF"/>
<path opacity="0.7" d="M357.703 208.022L274.409 252.17L248.26 250.244L179.381 192.721L186.374 116.971L364.59 133.406L357.703 208.022Z" fill="white"/>
<path opacity="0.2" d="M179.972 186.306L249.948 245.888C249.948 245.888 256.502 242.256 262.35 243.638C266.322 244.68 270.163 246.17 273.798 248.08L358.207 202.788L357.721 208.079L274.427 252.218L248.278 250.311L179.352 192.721L179.972 186.306Z" fill="black"/>
<path d="M363.874 337.406L363.75 338.721C363.65 339.974 363.059 341.138 362.104 341.957C361.15 342.777 359.911 343.186 358.656 343.097L153.107 324.107C151.853 323.968 150.705 323.338 149.915 322.355C149.125 321.373 148.756 320.117 148.89 318.864L149.014 317.548L252.504 250.969L254.603 249.615C256.47 248.399 258.687 247.833 260.909 248.005C263.131 248.177 265.234 249.079 266.89 250.568L269.056 252.475L363.874 337.406Z" fill="#407BFF"/>
<path d="M186.059 199.385L192.832 125.971L355.289 140.947L348.687 212.493" stroke="#407BFF" stroke-linecap="round" stroke-linejoin="round"/>
<path d="M215.89 191.091C214.22 190.986 213.028 190.576 212.455 189.842C212.146 189.466 211.915 189.032 211.774 188.566C211.633 188.099 211.586 187.61 211.635 187.126C211.738 185.968 211.998 184.829 212.408 183.741C212.865 182.435 213.362 181.177 213.791 179.995C214.643 177.967 215.553 175.864 216.519 173.684C217.486 171.504 218.475 169.337 219.486 167.182C220.491 165.04 221.48 162.975 222.453 160.986C223.426 158.996 224.345 157.192 225.21 155.571C222.972 155.469 221.064 155.412 219.486 155.399C217.884 155.399 216.433 155.399 215.126 155.456C213.819 155.514 212.436 155.619 210.977 155.8C211.062 155.195 211.29 154.62 211.644 154.122C211.998 153.625 212.466 153.219 213.009 152.94C214.422 152.227 215.968 151.814 217.55 151.729C219.674 151.575 221.807 151.575 223.932 151.729C225.582 151.834 227.071 151.967 228.416 152.149C229.761 152.33 231.039 152.511 232.232 152.701C233.424 152.892 234.664 153.054 235.838 153.188C236.792 153.741 237.428 154.093 237.746 154.246C238.051 154.398 238.108 154.465 237.908 154.456C237.029 155.034 236.037 155.421 234.998 155.59C233.824 155.798 232.633 155.9 231.44 155.895C230.219 155.895 229.055 155.847 227.939 155.781C226.349 159.149 224.759 162.841 223.169 166.858C221.579 170.875 220.049 175.05 218.58 179.385L217.216 183.579C216.834 184.761 216.516 185.839 216.262 186.811C216.039 187.795 215.899 188.797 215.842 189.804C215.827 189.992 215.827 190.18 215.842 190.367C215.871 190.538 215.88 190.796 215.89 191.091Z" fill="#407BFF"/>
<path d="M231.173 189.585C230.48 189.547 230.003 188.965 229.742 187.84C229.465 186.59 229.375 185.305 229.475 184.027C229.632 182.168 230.01 180.334 230.601 178.565C231.309 176.3 232.134 174.072 233.072 171.892C234.073 169.565 235.17 167.297 236.382 165.075C237.494 163.007 238.72 161.002 240.055 159.07C241.084 157.541 242.256 156.115 243.556 154.808C244.634 153.75 245.559 153.245 246.313 153.292C246.643 153.32 246.957 153.449 247.21 153.663C247.463 153.876 247.643 154.163 247.725 154.484C248.003 155.21 248.126 155.986 248.088 156.763C247.978 157.89 247.702 158.995 247.267 160.042C246.734 161.442 246.096 162.799 245.359 164.103C244.516 165.572 243.579 166.986 242.554 168.336C241.537 169.675 240.41 170.928 239.187 172.082C238.091 173.131 236.855 174.023 235.514 174.732C235.066 175.733 234.675 176.758 234.34 177.802C233.751 179.633 233.386 181.528 233.253 183.446C233.253 183.674 233.253 183.894 233.253 184.113C233.242 184.304 233.242 184.494 233.253 184.685L234.302 182.397C234.741 181.444 235.256 180.49 235.876 179.404C236.486 178.344 237.192 177.342 237.985 176.41C238.736 175.511 239.644 174.755 240.665 174.18C241.64 173.63 242.754 173.378 243.871 173.455C244.76 173.46 245.621 173.766 246.313 174.323C246.889 174.824 247.298 175.489 247.487 176.229C247.694 176.953 247.775 177.708 247.725 178.46C247.669 179.448 247.433 180.417 247.029 181.32C246.628 182.273 246.237 183.103 245.836 183.922C245.468 184.658 245.244 185.457 245.178 186.277C245.141 186.505 245.15 186.737 245.204 186.962C245.258 187.186 245.356 187.397 245.493 187.583C245.737 187.856 246.081 188.021 246.447 188.041C247.393 188.003 248.304 187.67 249.051 187.087C250.177 186.322 251.197 185.412 252.085 184.38C253.112 183.21 254.007 181.931 254.756 180.567L255.452 181.348C254.67 182.897 253.709 184.35 252.59 185.676C251.597 186.876 250.407 187.898 249.07 188.698C247.898 189.401 246.542 189.733 245.178 189.652C244.675 189.657 244.176 189.561 243.712 189.367C243.248 189.174 242.828 188.888 242.478 188.527C242.187 188.193 241.968 187.804 241.831 187.383C241.695 186.962 241.646 186.517 241.686 186.077C241.746 185.3 241.916 184.536 242.192 183.808C242.488 182.988 242.774 182.149 243.06 181.291C243.328 180.529 243.492 179.733 243.546 178.927C243.595 178.63 243.584 178.325 243.514 178.032C243.444 177.739 243.315 177.463 243.136 177.221C242.98 177.048 242.79 176.908 242.579 176.81C242.367 176.712 242.139 176.657 241.906 176.649C241.487 176.629 241.069 176.695 240.677 176.843C240.285 176.99 239.927 177.216 239.626 177.507C238.874 178.208 238.231 179.018 237.718 179.909C237.096 180.924 236.53 181.971 236.019 183.045C235.495 184.151 234.97 185.2 234.464 186.21C234.05 187.082 233.527 187.899 232.909 188.641C232.722 188.931 232.465 189.17 232.162 189.335C231.858 189.5 231.518 189.586 231.173 189.585ZM236.592 172.073C237.561 171.297 238.456 170.432 239.263 169.489C240.158 168.458 240.993 167.376 241.763 166.248C242.535 165.114 243.222 163.998 243.814 162.911C244.344 161.961 244.825 160.985 245.254 159.985C245.554 159.335 245.769 158.649 245.893 157.945C245.904 157.898 245.904 157.849 245.893 157.802C245.893 157.802 245.893 157.744 245.817 157.744C245.626 157.744 245.168 158.126 244.462 158.927C243.756 159.727 242.926 160.833 241.963 162.158C240.932 163.65 239.976 165.193 239.101 166.782C238.141 168.484 237.303 170.252 236.592 172.073Z" fill="#407BFF"/>
<path d="M255.537 191.549C254.521 191.499 253.564 191.058 252.866 190.319C252.486 189.877 252.205 189.36 252.04 188.801C251.876 188.242 251.832 187.655 251.912 187.078C252.013 185.777 252.356 184.506 252.923 183.331C253.571 181.953 254.382 180.657 255.337 179.47C256.329 178.214 257.458 177.072 258.704 176.067C259.894 175.089 261.217 174.286 262.635 173.684C263.899 173.121 265.279 172.866 266.661 172.94C267.906 172.972 269.104 173.418 270.067 174.208C270.491 174.547 270.826 174.985 271.043 175.484C271.259 175.983 271.349 176.526 271.307 177.068C271.318 177.428 271.237 177.785 271.07 178.104C270.902 178.423 270.655 178.693 270.353 178.889C269.709 179.224 268.963 179.302 268.264 179.108C268.356 178.827 268.432 178.54 268.492 178.25C268.557 177.952 268.598 177.649 268.616 177.344C268.672 176.709 268.557 176.071 268.283 175.495C268.115 175.204 267.868 174.967 267.571 174.81C267.274 174.653 266.939 174.583 266.604 174.608C265.595 174.577 264.6 174.842 263.742 175.371C262.673 176.004 261.695 176.776 260.832 177.669C258.951 179.592 257.455 181.857 256.424 184.342C256.001 185.333 255.737 186.385 255.642 187.459C255.575 188.575 255.947 189.156 256.777 189.204C257.71 189.185 258.609 188.849 259.325 188.25C260.385 187.486 261.366 186.618 262.253 185.657C263.258 184.596 264.212 183.509 265.115 182.397C266.018 181.285 266.82 180.303 267.519 179.451C267.662 179.289 267.777 179.213 267.882 179.223C267.987 179.232 268.302 179.356 268.655 179.489C268.997 179.621 269.318 179.801 269.609 180.023C269.741 180.111 269.848 180.232 269.919 180.374C269.989 180.517 270.02 180.675 270.009 180.834C269.945 181.282 269.764 181.707 269.485 182.063L268.407 183.703C268.006 184.304 267.634 184.914 267.3 185.514C266.985 186.064 266.796 186.676 266.747 187.307C266.729 187.751 266.831 188.192 267.042 188.584C267.155 188.797 267.324 188.974 267.531 189.097C267.738 189.22 267.975 189.283 268.216 189.28C269.036 189.328 270.2 188.794 271.698 187.678C273.595 186.106 275.192 184.204 276.411 182.063L277.155 182.893C276.351 184.532 275.32 186.05 274.092 187.402C273.038 188.587 271.798 189.591 270.42 190.376C269.301 191.046 268.012 191.377 266.708 191.33C266.155 191.348 265.605 191.232 265.107 190.991C264.608 190.751 264.176 190.392 263.846 189.947C263.287 189.158 262.981 188.217 262.969 187.249C262.961 187.145 262.961 187.04 262.969 186.935C262.993 186.828 263.009 186.72 263.017 186.611C261.829 187.967 260.513 189.206 259.086 190.31C258.087 191.13 256.83 191.569 255.537 191.549Z" fill="#407BFF"/>
<path d="M291.102 192.302C290.597 192.307 290.095 192.212 289.627 192.023C289.158 191.833 288.733 191.552 288.374 191.196C288.076 190.872 287.849 190.489 287.708 190.072C287.567 189.655 287.514 189.213 287.553 188.775C287.602 188.049 287.763 187.335 288.03 186.658C288.307 185.934 288.584 185.19 288.851 184.437C289.117 183.724 289.281 182.976 289.337 182.216C289.39 181.924 289.377 181.623 289.299 181.336C289.222 181.05 289.082 180.783 288.889 180.557C288.547 180.241 288.105 180.055 287.639 180.033C286.514 180.021 285.417 180.391 284.529 181.082C283.356 181.915 282.278 182.874 281.314 183.941C280.249 185.119 279.248 186.353 278.319 187.64C277.384 188.911 276.573 190.065 275.886 191.101C275.313 191.071 274.751 190.939 274.226 190.71C273.703 190.469 273.262 190.082 272.957 189.595C273.151 189.094 273.371 188.604 273.615 188.126C274.016 187.307 274.464 186.315 274.96 185.143C275.457 183.97 275.914 182.75 276.344 181.491C276.74 180.356 276.987 179.173 277.078 177.974C277.409 177.705 277.771 177.477 278.156 177.297C278.605 177.07 279.105 176.964 279.606 176.992C280.656 177.059 281.152 177.564 281.095 178.517C281.023 179.203 280.882 179.88 280.675 180.538C280.427 181.46 280.109 182.47 279.721 183.57C280.671 182.389 281.697 181.271 282.793 180.224C283.831 179.213 284.999 178.344 286.265 177.64C287.348 177.016 288.585 176.712 289.833 176.763C290.406 176.762 290.969 176.907 291.469 177.184C291.97 177.461 292.392 177.86 292.695 178.345C293.273 179.306 293.543 180.421 293.468 181.539C293.419 182.487 293.196 183.418 292.81 184.285C292.428 185.133 292.056 185.943 291.703 186.697C291.354 187.402 291.146 188.17 291.093 188.956C291.031 189.388 291.137 189.828 291.388 190.186C291.499 190.313 291.636 190.415 291.788 190.488C291.941 190.56 292.107 190.6 292.276 190.605C293.204 190.614 294.101 190.27 294.785 189.642C295.759 188.834 296.631 187.908 297.379 186.887C298.197 185.796 298.951 184.66 299.64 183.484L300.337 184.17C299.6 185.655 298.738 187.074 297.761 188.412C296.932 189.575 295.898 190.577 294.708 191.368C293.639 192.061 292.374 192.389 291.102 192.302Z" fill="#407BFF"/>
<path d="M313.179 194.523C312.232 194.482 311.336 194.083 310.67 193.408C309.966 192.685 309.428 191.816 309.096 190.862C308.731 189.872 308.469 188.847 308.314 187.802C308.168 186.917 308.114 186.02 308.152 185.124C308.724 185.063 309.291 184.965 309.85 184.828C310.594 184.664 311.322 184.434 312.025 184.142C312.735 183.867 313.383 183.456 313.933 182.931C314.45 182.426 314.757 181.745 314.792 181.024C314.819 180.744 314.783 180.46 314.688 180.195C314.592 179.929 314.439 179.688 314.238 179.489C313.813 179.071 313.242 178.832 312.645 178.822C311.661 178.776 310.689 179.054 309.879 179.613C308.919 180.271 308.074 181.083 307.379 182.016C306.591 183.033 305.889 184.114 305.28 185.247C304.651 186.42 304.088 187.535 303.592 188.613C303.096 189.69 302.638 190.605 302.342 191.377C302.127 192.012 301.76 192.584 301.274 193.046C300.872 193.33 300.38 193.459 299.89 193.408C299.53 193.388 299.19 193.235 298.936 192.979C298.611 192.618 298.408 192.165 298.354 191.682C298.232 190.897 298.203 190.1 298.268 189.309C298.452 187.153 298.884 185.026 299.556 182.969C300.298 180.553 301.193 178.187 302.237 175.886C303.325 173.484 304.489 171.177 305.748 168.984C306.891 166.954 308.139 164.984 309.487 163.083C310.495 161.598 311.642 160.213 312.912 158.946C313.962 157.935 314.82 157.449 315.421 157.487C316.022 157.525 316.375 157.878 316.662 158.555C316.984 159.342 317.112 160.196 317.034 161.043C316.928 162.321 316.605 163.572 316.08 164.742C315.461 166.175 314.673 167.529 313.733 168.774C312.721 170.162 311.567 171.44 310.289 172.588C308.989 173.755 307.543 174.748 305.986 175.543C304.934 177.691 304.063 179.923 303.382 182.216C302.806 184.085 302.382 185.998 302.113 187.936C302.749 186.62 303.493 185.257 304.345 183.846C305.174 182.441 306.105 181.1 307.131 179.833C308.042 178.672 309.13 177.662 310.356 176.839C311.388 176.13 312.624 175.778 313.876 175.838C314.491 175.867 315.095 176.018 315.651 176.282C316.208 176.545 316.707 176.916 317.119 177.373C317.553 177.826 317.885 178.367 318.092 178.959C318.3 179.551 318.378 180.18 318.322 180.805C318.287 181.731 317.952 182.621 317.368 183.341C316.793 184.033 316.086 184.603 315.288 185.019C314.535 185.419 313.733 185.72 312.903 185.915C312.261 186.08 311.6 186.157 310.938 186.144C310.985 186.544 311.062 187.097 311.186 187.736C311.318 188.434 311.519 189.117 311.787 189.776C312.03 190.424 312.385 191.024 312.836 191.549C313.033 191.78 313.275 191.968 313.548 192.102C313.82 192.237 314.116 192.314 314.42 192.331C315.401 192.359 316.357 192.018 317.1 191.377C318.12 190.569 319.025 189.626 319.791 188.575C320.729 187.324 321.555 185.994 322.262 184.599L322.805 185.371C322.173 186.98 321.332 188.499 320.306 189.89C319.372 191.221 318.217 192.381 316.891 193.322C315.826 194.132 314.517 194.555 313.179 194.523ZM307.37 172.721C308.607 171.778 309.754 170.722 310.794 169.566C311.869 168.403 312.81 167.124 313.599 165.752C314.279 164.656 314.715 163.428 314.878 162.149C314.898 162.067 314.898 161.982 314.878 161.901C314.544 161.901 313.971 162.473 313.17 163.483C312.193 164.738 311.283 166.043 310.441 167.392C309.392 168.994 308.381 170.776 307.37 172.721Z" fill="#407BFF"/>
<path d="M238.986 227.479C238.184 227.41 237.428 227.075 236.84 226.526C236.525 226.234 236.288 225.869 236.149 225.463C236.011 225.057 235.976 224.623 236.048 224.2C236.128 223.194 236.526 222.239 237.183 221.473C237.897 220.656 238.742 219.964 239.683 219.424C240.732 218.804 241.826 218.262 242.955 217.803C244.128 217.326 245.292 216.85 246.447 216.411C246.933 215.458 247.467 214.247 248.059 212.827C248.65 211.406 249.194 209.967 249.681 208.604C248.606 209.931 247.398 211.145 246.075 212.226C245.533 212.701 244.903 213.063 244.219 213.29C243.536 213.518 242.814 213.607 242.096 213.551C241.471 213.485 240.863 213.304 240.303 213.017C239.682 212.706 239.169 212.215 238.834 211.607C238.445 210.863 238.298 210.016 238.414 209.185C238.54 208.132 238.793 207.098 239.168 206.106C239.584 204.94 240.085 203.806 240.665 202.712C241.149 201.751 241.728 200.841 242.392 199.995C242.964 199.28 243.441 198.937 243.833 198.975C244.1 199.022 244.358 199.112 244.596 199.242C244.953 199.413 245.289 199.624 245.598 199.871C245.868 200.06 246.058 200.342 246.132 200.663C245.706 201.162 245.329 201.702 245.006 202.274C244.546 203.049 244.125 203.848 243.747 204.666C243.346 205.543 242.993 206.411 242.697 207.269C242.441 207.984 242.265 208.726 242.173 209.481C242.114 209.939 242.184 210.404 242.373 210.825C242.485 211.028 242.652 211.196 242.854 211.31C243.056 211.425 243.286 211.481 243.518 211.473C244.323 211.503 245.115 211.265 245.769 210.796C246.671 210.209 247.5 209.518 248.24 208.737C249.054 207.904 249.81 207.015 250.501 206.077C250.645 205.728 250.76 205.368 250.845 205C250.96 204.537 251.103 204.082 251.274 203.637C251.478 203.085 251.804 202.586 252.228 202.178C252.459 201.945 252.742 201.769 253.053 201.665C253.365 201.56 253.696 201.531 254.021 201.578C254.25 201.578 254.47 201.616 254.68 201.692C254.889 201.74 255.138 201.816 255.424 201.911C255.252 202.867 254.994 203.805 254.651 204.714C254.174 206.096 253.573 207.688 252.848 209.481C252.123 211.273 251.322 213.113 250.434 214.934C252.1 214.417 253.657 213.603 255.033 212.531C256.76 211.163 258.147 209.414 259.087 207.421L259.812 208.079C259.225 209.58 258.339 210.945 257.208 212.093C256.138 213.163 254.92 214.075 253.592 214.8C252.343 215.488 251.038 216.068 249.69 216.535C248.679 218.468 247.554 220.34 246.323 222.141C245.333 223.649 244.124 225.001 242.736 226.154C242.231 226.614 241.639 226.967 240.995 227.195C240.351 227.423 239.668 227.519 238.986 227.479ZM238.757 225.744C239.339 225.792 240.255 225.229 241.495 224.028C243.114 222.297 244.465 220.334 245.502 218.203C244.31 218.69 243.146 219.223 242.01 219.824C240.979 220.362 240.018 221.025 239.148 221.797C238.418 222.411 237.951 223.281 237.841 224.228C237.825 224.554 237.88 224.88 238.004 225.182C238.062 225.338 238.164 225.474 238.298 225.574C238.431 225.673 238.591 225.733 238.757 225.744Z" fill="#407BFF"/>
<path d="M260.442 217.288C259.857 217.3 259.281 217.151 258.776 216.857C258.271 216.562 257.857 216.134 257.58 215.62C257.106 214.619 256.921 213.507 257.045 212.407C257.15 211.333 257.41 210.28 257.818 209.28C258.239 208.268 258.777 207.308 259.421 206.421C259.988 205.608 260.684 204.893 261.481 204.304C262.097 203.816 262.872 203.571 263.656 203.618C263.896 203.649 264.131 203.714 264.353 203.808C264.574 203.884 264.773 204.012 264.935 204.18C264.446 204.648 264.011 205.169 263.637 205.734C263.144 206.441 262.698 207.18 262.302 207.946C261.89 208.719 261.536 209.522 261.243 210.348C260.974 211.07 260.797 211.822 260.718 212.588C260.622 213.192 260.701 213.811 260.947 214.371C261.06 214.594 261.231 214.782 261.443 214.915C261.655 215.047 261.899 215.12 262.149 215.124C263.022 215.113 263.868 214.823 264.563 214.295C265.581 213.629 266.519 212.849 267.358 211.969C266.474 211.051 265.82 209.937 265.45 208.718C265.079 207.424 264.962 206.071 265.107 204.733C265.205 203.847 265.467 202.988 265.879 202.197C266.324 201.335 266.98 200.601 267.787 200.062C268.684 199.497 269.751 199.264 270.802 199.404C271.34 199.397 271.873 199.522 272.352 199.768C272.831 200.013 273.242 200.373 273.549 200.815C274.034 201.685 274.224 202.688 274.093 203.675C273.921 205.075 273.47 206.427 272.767 207.65C272.001 209.092 271.111 210.463 270.106 211.75C270.541 212.058 271.052 212.242 271.584 212.283C272.185 212.317 272.787 212.256 273.368 212.102C274.116 211.921 274.822 211.597 275.448 211.149C276.169 210.634 276.76 209.958 277.175 209.176L277.9 209.833C277.224 211.208 276.133 212.335 274.78 213.056C273.695 213.637 272.47 213.908 271.241 213.837C270.815 213.795 270.393 213.715 269.982 213.599C269.587 213.481 269.207 213.321 268.846 213.122C267.646 214.357 266.282 215.422 264.792 216.287C263.484 217.072 261.961 217.422 260.442 217.288ZM268.636 210.615C269.557 209.544 270.351 208.37 271.002 207.116C271.607 206.016 271.993 204.808 272.138 203.561C272.24 202.95 272.17 202.323 271.937 201.749C271.85 201.567 271.716 201.41 271.548 201.296C271.38 201.182 271.185 201.115 270.983 201.101C270.569 201.117 270.165 201.231 269.804 201.433C269.442 201.635 269.134 201.92 268.903 202.264C268.129 203.192 267.677 204.346 267.616 205.553C267.552 206.435 267.593 207.322 267.74 208.194C267.856 209.056 268.159 209.882 268.627 210.615H268.636Z" fill="#407BFF"/>
<path d="M278.921 218.88C278.378 218.834 277.857 218.648 277.407 218.341C276.957 218.033 276.595 217.615 276.355 217.126C275.742 216.03 275.489 214.77 275.63 213.523C275.753 212.437 276.009 211.371 276.393 210.348C276.813 209.143 277.307 207.965 277.872 206.821C278.344 205.828 278.917 204.886 279.579 204.009C280.152 203.275 280.638 202.922 281.029 202.96C281.376 203.035 281.701 203.184 281.983 203.399C282.39 203.659 282.754 203.98 283.061 204.352C282.491 205.079 281.983 205.854 281.545 206.668C280.916 207.766 280.359 208.903 279.875 210.072C279.405 211.148 279.1 212.289 278.969 213.456C278.969 213.618 278.969 213.952 278.969 214.457C278.973 214.946 279.063 215.43 279.236 215.887C279.315 216.1 279.456 216.284 279.642 216.415C279.828 216.546 280.049 216.618 280.276 216.621C280.981 216.619 281.66 216.358 282.184 215.887C282.995 215.243 283.73 214.511 284.378 213.704C285.169 212.744 285.911 211.745 286.601 210.71C287.316 209.633 287.994 208.604 288.604 207.603C289.215 206.602 289.72 205.782 290.112 205.095C290.461 205.18 290.805 205.285 291.142 205.41C291.542 205.548 291.92 205.741 292.268 205.982C292.413 206.075 292.531 206.205 292.609 206.36C292.686 206.514 292.72 206.687 292.706 206.859C292.552 207.266 292.36 207.659 292.134 208.032C291.752 208.718 291.314 209.547 290.798 210.51C290.283 211.472 289.822 212.462 289.415 213.475C289.054 214.334 288.813 215.239 288.7 216.163C288.65 216.603 288.709 217.048 288.871 217.46C288.974 217.656 289.129 217.819 289.32 217.932C289.51 218.045 289.728 218.103 289.949 218.099C290.847 218.103 291.729 217.859 292.497 217.393C293.676 216.744 294.752 215.925 295.692 214.962C296.885 213.78 297.918 212.447 298.764 210.996L299.394 211.597C298.558 213.23 297.484 214.731 296.208 216.049C295.082 217.233 293.762 218.216 292.306 218.957C291.133 219.573 289.813 219.857 288.49 219.776C287.74 219.755 287.021 219.471 286.458 218.976C285.998 218.523 285.697 217.935 285.599 217.298C285.485 216.631 285.456 215.951 285.513 215.277C285.513 215.048 285.571 214.81 285.609 214.552C285.644 214.308 285.691 214.067 285.752 213.828C285.112 214.715 284.417 215.562 283.672 216.364C282.997 217.098 282.227 217.739 281.382 218.27C280.656 218.748 279.787 218.963 278.921 218.88Z" fill="#407BFF"/>
<path d="M320.171 216.049C319.639 216.062 319.117 215.912 318.673 215.62C318.457 215.46 318.285 215.247 318.175 215.001C318.065 214.756 318.02 214.487 318.043 214.219C318.066 213.845 318.183 213.483 318.383 213.166C318.583 212.849 318.86 212.588 319.188 212.407C319.896 211.913 320.738 211.643 321.602 211.635C322.069 211.616 322.53 211.746 322.918 212.007C323.104 212.164 323.247 212.365 323.337 212.591C323.427 212.817 323.46 213.062 323.433 213.303C323.41 213.658 323.314 214.004 323.149 214.319C322.985 214.634 322.757 214.912 322.479 215.134C321.861 215.731 321.031 216.06 320.171 216.049ZM324.635 198.584C325.399 196.601 326.219 194.491 327.097 192.254C327.974 190.024 328.881 187.85 329.797 185.734C330.712 183.617 331.619 181.682 332.515 179.947C333.242 178.481 334.114 177.091 335.12 175.8C335.375 175.385 335.718 175.031 336.126 174.762C336.533 174.494 336.994 174.318 337.476 174.246C337.666 174.248 337.853 174.289 338.026 174.368C338.199 174.447 338.353 174.561 338.478 174.704C338.765 175.019 338.918 175.432 338.907 175.857C338.749 176.92 338.427 177.953 337.953 178.917C337.317 180.424 336.513 182.245 335.54 184.38C334.566 186.515 333.46 188.787 332.22 191.196C330.999 193.599 329.758 195.963 328.499 198.327C327.24 200.691 326.028 202.827 324.883 204.8C323.739 206.773 322.766 208.356 321.964 209.566L321.678 209.452L321.449 209.338C321.613 208.052 321.862 206.778 322.193 205.524C322.528 204.233 322.929 202.961 323.395 201.711C323.879 200.504 324.292 199.461 324.635 198.584Z" fill="#407BFF"/>
<path d="M386.094 342.744C385.393 340.257 384.98 337.698 384.863 335.118C384.746 332.522 385.524 329.964 387.067 327.872C388.364 326.261 390.215 325.155 391.474 323.516C393.583 320.751 393.812 316.728 396.416 314.44C398.162 312.915 400.604 312.534 402.617 311.352C404.63 310.169 406.166 308.282 408.007 306.833C409.848 305.384 412.395 304.364 414.542 305.317C417.242 306.518 417.862 310.169 417.137 313.029C416.412 315.889 414.771 318.482 414.275 321.39C413.941 323.411 414.113 325.708 412.739 327.224C411.365 328.74 408.703 328.854 407.091 330.294C405.479 331.733 405.279 334.393 404.649 336.595C404.13 338.403 403.195 340.064 401.918 341.445C400.641 342.826 399.058 343.889 397.295 344.548C395.533 345.207 393.64 345.444 391.769 345.24C389.899 345.036 388.102 344.397 386.523 343.373" fill="#407BFF"/>
<g opacity="0.4">
<path d="M386.094 342.744C385.393 340.257 384.98 337.698 384.863 335.118C384.746 332.522 385.524 329.964 387.067 327.872C388.364 326.261 390.215 325.155 391.474 323.516C393.583 320.751 393.812 316.728 396.416 314.44C398.162 312.915 400.604 312.534 402.617 311.352C404.63 310.169 406.166 308.282 408.007 306.833C409.848 305.384 412.395 304.364 414.542 305.317C417.242 306.518 417.862 310.169 417.137 313.029C416.412 315.889 414.771 318.482 414.275 321.39C413.941 323.411 414.113 325.708 412.739 327.224C411.365 328.74 408.703 328.854 407.091 330.294C405.479 331.733 405.279 334.393 404.649 336.595C404.13 338.403 403.195 340.064 401.918 341.445C400.641 342.826 399.058 343.889 397.295 344.548C395.533 345.207 393.64 345.444 391.769 345.24C389.899 345.036 388.102 344.397 386.523 343.373" fill="white"/>
</g>
<path d="M386.925 307.443C384.451 306.722 382.067 305.724 379.817 304.469C377.555 303.183 375.799 301.166 374.837 298.749C374.151 296.842 374.208 294.64 373.473 292.705C372.243 289.454 368.951 287.137 368.388 283.705C368.016 281.418 368.961 279.13 369.037 276.823C369.113 274.516 368.322 272.189 368.083 269.854C367.845 267.518 368.303 264.83 370.258 263.514C372.7 261.865 376.125 263.266 378.176 265.421C380.228 267.575 381.554 270.321 383.767 272.266C385.303 273.619 387.344 274.697 387.898 276.661C388.451 278.624 387.154 280.941 387.516 283.067C387.879 285.193 390.035 286.785 391.571 288.482C392.833 289.876 393.751 291.546 394.25 293.359C394.749 295.171 394.815 297.076 394.444 298.919C394.073 300.762 393.275 302.492 392.113 303.971C390.951 305.45 389.458 306.636 387.755 307.433" fill="#407BFF"/>
<g opacity="0.2">
<path d="M386.925 307.443C384.451 306.722 382.067 305.724 379.817 304.469C377.555 303.183 375.799 301.166 374.837 298.749C374.151 296.842 374.208 294.64 373.473 292.705C372.243 289.454 368.951 287.137 368.388 283.705C368.016 281.418 368.961 279.13 369.037 276.823C369.113 274.516 368.322 272.189 368.083 269.854C367.845 267.518 368.303 264.83 370.258 263.514C372.7 261.865 376.125 263.266 378.176 265.421C380.228 267.575 381.554 270.321 383.767 272.266C385.303 273.619 387.344 274.697 387.898 276.661C388.451 278.624 387.154 280.941 387.516 283.067C387.879 285.193 390.035 286.785 391.571 288.482C392.833 289.876 393.751 291.546 394.25 293.359C394.749 295.171 394.815 297.076 394.444 298.919C394.073 300.762 393.275 302.492 392.113 303.971C390.951 305.45 389.458 306.636 387.755 307.433" fill="black"/>
</g>
<path d="M382.555 334.002C381.098 335.317 379.498 336.465 377.785 337.425C376.042 338.384 374.022 338.72 372.061 338.378C370.516 338.035 369.133 337.139 367.578 336.834C364.973 336.319 362.13 337.529 359.678 336.509C358.047 335.833 356.94 334.298 355.462 333.306C353.983 332.315 352.161 331.905 350.549 331.133C348.936 330.361 347.372 328.969 347.305 327.167C347.219 324.917 349.509 323.258 351.713 322.782C353.916 322.305 356.254 322.572 358.391 321.914C359.888 321.466 361.405 320.57 362.913 320.961C364.42 321.352 365.393 323.182 366.919 323.821C368.446 324.46 370.354 323.687 372.071 323.373C373.486 323.119 374.942 323.199 376.321 323.609C377.699 324.018 378.963 324.744 380.01 325.729C381.057 326.715 381.859 327.931 382.35 329.282C382.842 330.632 383.01 332.079 382.842 333.506" fill="#407BFF"/>
<g opacity="0.2">
<path d="M382.555 334.002C381.098 335.317 379.498 336.465 377.785 337.425C376.042 338.384 374.022 338.72 372.061 338.378C370.516 338.035 369.133 337.139 367.578 336.834C364.973 336.319 362.13 337.529 359.678 336.509C358.047 335.833 356.94 334.298 355.462 333.306C353.983 332.315 352.161 331.905 350.549 331.133C348.936 330.361 347.372 328.969 347.305 327.167C347.219 324.917 349.509 323.258 351.713 322.782C353.916 322.305 356.254 322.572 358.391 321.914C359.888 321.466 361.405 320.57 362.913 320.961C364.42 321.352 365.393 323.182 366.919 323.821C368.446 324.46 370.354 323.687 372.071 323.373C373.486 323.119 374.942 323.199 376.321 323.609C377.699 324.018 378.963 324.744 380.01 325.729C381.057 326.715 381.859 327.931 382.35 329.282C382.842 330.632 383.01 332.079 382.842 333.506" fill="black"/>
</g>
<path d="M382.001 325.661C379.417 326.169 376.783 326.38 374.15 326.29C371.495 326.189 368.955 325.18 366.957 323.43C365.421 321.971 364.448 319.989 362.874 318.578C360.241 316.204 356.196 315.651 354.04 312.801C352.618 310.894 352.408 308.387 351.397 306.242C350.386 304.097 348.535 302.429 347.238 300.379C345.94 298.329 345.082 295.717 346.226 293.61C347.677 290.97 351.445 290.636 354.297 291.599C357.15 292.562 359.659 294.459 362.588 295.193C364.62 295.698 366.976 295.717 368.407 297.243C369.838 298.768 369.733 301.475 371.069 303.229C372.404 304.983 375.095 305.422 377.289 306.242C379.088 306.918 380.703 308.007 382.004 309.42C383.306 310.834 384.258 312.532 384.784 314.38C385.31 316.227 385.395 318.172 385.033 320.058C384.671 321.945 383.871 323.72 382.698 325.241" fill="#407BFF"/>
<g opacity="0.4">
<path d="M382.001 325.661C379.417 326.169 376.783 326.38 374.15 326.29C371.495 326.189 368.955 325.18 366.957 323.43C365.421 321.971 364.448 319.989 362.874 318.578C360.241 316.204 356.196 315.651 354.04 312.801C352.618 310.894 352.408 308.387 351.397 306.242C350.386 304.097 348.535 302.429 347.238 300.379C345.94 298.329 345.082 295.717 346.226 293.61C347.677 290.97 351.445 290.636 354.297 291.599C357.15 292.562 359.659 294.459 362.588 295.193C364.62 295.698 366.976 295.717 368.407 297.243C369.838 298.768 369.733 301.475 371.069 303.229C372.404 304.983 375.095 305.422 377.289 306.242C379.088 306.918 380.703 308.007 382.004 309.42C383.306 310.834 384.258 312.532 384.784 314.38C385.31 316.227 385.395 318.172 385.033 320.058C384.671 321.945 383.871 323.72 382.698 325.241" fill="white"/>
</g>
<path d="M385.063 310.942C383.769 308.282 382.783 305.484 382.125 302.6C381.475 299.691 381.839 296.647 383.155 293.973C384.3 291.885 386.17 290.264 387.258 288.157C389.089 284.611 388.526 280.016 391.016 276.908C392.676 274.83 395.357 273.867 397.399 272.142C399.44 270.416 400.785 267.966 402.579 265.955C404.372 263.943 407.034 262.275 409.657 262.923C412.939 263.743 414.38 267.738 414.151 271.112C413.922 274.487 412.567 277.785 412.615 281.141C412.615 283.486 413.292 286.051 412.042 288.043C410.793 290.036 407.816 290.693 406.318 292.648C404.821 294.602 405.097 297.643 404.821 300.274C404.6 302.418 403.88 304.48 402.718 306.295C401.556 308.111 399.985 309.629 398.13 310.728C396.275 311.827 394.188 312.477 392.037 312.625C389.885 312.773 387.729 312.415 385.741 311.58" fill="#407BFF"/>
<g opacity="0.4">
<path d="M385.063 310.942C383.769 308.282 382.783 305.484 382.125 302.6C381.475 299.691 381.839 296.647 383.155 293.973C384.3 291.885 386.17 290.264 387.258 288.157C389.089 284.611 388.526 280.016 391.016 276.908C392.676 274.83 395.357 273.867 397.399 272.142C399.44 270.416 400.785 267.966 402.579 265.955C404.372 263.943 407.034 262.275 409.657 262.923C412.939 263.743 414.38 267.738 414.151 271.112C413.922 274.487 412.567 277.785 412.615 281.141C412.615 283.486 413.292 286.051 412.042 288.043C410.793 290.036 407.816 290.693 406.318 292.648C404.821 294.602 405.097 297.643 404.821 300.274C404.6 302.418 403.88 304.48 402.718 306.295C401.556 308.111 399.985 309.629 398.13 310.728C396.275 311.827 394.188 312.477 392.037 312.625C389.885 312.773 387.729 312.415 385.741 311.58" fill="white"/>
</g>
<path d="M381.791 350.647C390.568 337.167 400.709 324.603 411.136 312.372C411.432 312.019 410.926 311.514 410.631 311.866C400.137 324.135 389.986 336.757 381.181 350.285C380.923 350.666 381.543 351.028 381.791 350.647Z" fill="#263238"/>
<path d="M381.849 350.466C381 340.132 383.137 329.56 385.798 319.636C388.756 308.463 392.895 297.636 398.143 287.338C400.593 282.417 403.506 277.74 406.844 273.372C407.13 273.009 406.624 272.504 406.338 272.866C399.899 281.046 395.319 290.712 391.475 300.331C387.023 311.192 383.823 322.523 381.935 334.107C381.018 339.509 380.733 344.999 381.086 350.466C381.086 350.914 381.839 350.924 381.801 350.466H381.849Z" fill="#263238"/>
<path d="M382.975 325.012C380.294 319.588 375.21 316.128 370.363 312.781C364.543 308.955 359.427 304.153 355.242 298.587C354.966 298.215 354.346 298.587 354.622 298.949C358.544 304.254 363.333 308.86 368.789 312.572C373.912 316.128 379.503 319.598 382.355 325.375C382.565 325.785 383.185 325.422 382.975 325.012Z" fill="#263238"/>
<path d="M405.021 349.141H360.975C360.975 349.141 359.324 377.95 373.234 389.351L368.244 395.329H398.629L392.905 389.046C392.905 389.046 404.296 384.118 405.021 349.141Z" fill="#263238"/>
<g opacity="0.3">
<path d="M375.086 351.705L363.59 351.81C364.181 358.016 364.782 364.27 366.452 370.266C368.121 376.263 370.993 382.087 375.515 386.377C372.615 375.262 373.76 363.145 375.086 351.705Z" fill="white"/>
</g>
<path d="M111.017 84.6731C110.261 83.7982 109.327 83.0952 108.277 82.6116C107.227 82.1279 106.085 81.8749 104.929 81.8694C103.772 81.864 102.628 82.1064 101.574 82.5801C100.519 83.0539 99.5783 83.7481 98.8149 84.6159C97.8491 85.8535 97.0386 87.2046 96.4012 88.6389C94.6918 91.9965 92.6496 95.1743 90.3052 98.1244C89.0465 99.8649 87.4462 101.331 85.602 102.433C82.74 103.959 79.3533 103.863 76.1192 103.968C72.8851 104.073 69.3935 104.531 67.0753 106.828C66.5842 107.263 66.2325 107.834 66.064 108.468C65.7301 110.079 67.3329 111.49 68.926 111.852C70.5192 112.214 72.2078 111.938 73.8296 112.243C72.4985 112.857 71.3796 113.853 70.6146 115.103C70.2415 115.731 70.0682 116.457 70.1176 117.186C70.167 117.915 70.4368 118.611 70.8913 119.183C71.6348 119.882 72.5858 120.32 73.6006 120.432C76.23 120.917 78.9408 120.703 81.4616 119.812C80.0115 121.357 78.447 123.282 78.943 125.341C79.4868 127.591 82.1866 128.554 84.5049 128.659C89.7996 128.907 94.9225 126.752 99.4254 123.892C105.674 119.993 111.408 114.359 112.944 107.19C113.65 103.882 113.43 100.384 114.584 97.1996L111.017 84.6731Z" fill="#263238"/>
<path d="M113.115 74.7682C112.457 73.3382 110.444 73.1094 108.965 73.6624C107.789 74.1018 106.769 74.8815 106.038 75.902C105.306 76.9225 104.895 78.1376 104.857 79.3925C104.819 80.6473 105.156 81.885 105.825 82.9477C106.494 84.0104 107.464 84.85 108.612 85.3595L108.755 86.4653C106.334 84.0962 103.199 82.5888 99.8356 82.1754C97.9778 81.874 96.0722 82.1747 94.3978 83.0334C93.5772 83.4752 92.9025 84.1454 92.4555 84.9626C92.0085 85.7799 91.8083 86.7092 91.8792 87.6379C92.1845 89.678 94.1497 91.1652 96.1913 91.4988C98.2553 91.7058 100.337 91.3569 102.221 90.4883C104.093 89.6191 106.045 88.9327 108.05 88.4387C108.708 88.3148 109.49 88.1718 109.757 87.5617C109.869 87.1812 109.895 86.7808 109.833 86.3891C109.833 84.9591 110.683 83.6912 111.379 82.4424C112.344 80.709 112.99 78.817 113.287 76.856C113.426 76.1577 113.366 75.4345 113.115 74.7682Z" fill="#407BFF"/>
<path d="M132.28 81.4223C134.483 82.8971 136.272 84.9091 137.479 87.2679C138.686 89.6268 139.271 92.2545 139.178 94.9022C138.31 100.241 134.847 103.863 133.253 109.03L121.424 77.3708C124.734 78.1048 126.251 77.4852 132.28 81.4223Z" fill="#263238"/>
<path d="M125.23 78.448C119.735 75.7024 114.183 78.6005 110.92 80.6311C109.156 82.0443 107.711 83.8146 106.68 85.8257C105.649 87.8368 105.056 90.0431 104.939 92.2996C104.815 96.5704 104.672 101.747 107.19 104.054C107.893 104.71 108.723 105.213 109.629 105.533C110.535 105.853 111.498 105.982 112.456 105.913L134.16 87.0278C131.964 83.4542 128.89 80.5008 125.23 78.448Z" fill="#263238"/>
<path d="M124.973 127.753C123.609 126.657 120.546 122.615 120.88 120.375L122.464 112.872V112.634L117.446 109.993C116.844 109.37 116.019 109.01 115.152 108.992C114.285 108.974 113.446 109.3 112.819 109.898C112.332 110.346 111.97 110.155 111.865 110.803C111.865 110.937 111.865 111.852 111.865 111.995C111.674 117.009 110.815 120.165 108.049 122.348L119.249 134.96C125.45 130.804 125.831 128.478 124.973 127.753Z" fill="#FFA666"/>
<path opacity="0.2" d="M121.034 119.955C121.06 119.667 121.102 119.381 121.158 119.097C121.501 117.381 121.921 115.417 122.494 112.615C122.479 112.526 122.479 112.436 122.494 112.348L117.228 109.488C116.583 108.833 115.705 108.46 114.786 108.451C113.866 108.442 112.981 108.798 112.324 109.44C111.837 109.926 111.961 110.536 111.818 111.204C113.779 115.193 116.942 118.467 120.862 120.565C120.862 120.337 120.967 120.155 120.996 119.936L121.034 119.955Z" fill="black"/>
<path d="M108.069 93.6438C108.011 103.52 107.763 107.696 112.304 113.187C119.145 121.452 131.041 119.641 134.056 110.031C136.689 101.366 136.422 86.6846 127.206 81.918C117.99 77.1515 108.145 83.7484 108.069 93.6438Z" fill="#FFA666"/>
<path d="M103.45 101.938C104.284 103.888 105.859 105.428 107.829 106.218C110.376 107.171 112.208 103.12 111.645 100.393C111.358 99.1655 110.642 98.0803 109.626 97.3325C108.61 96.5847 107.361 96.2233 106.102 96.3131C103.508 96.5705 102.372 99.5066 103.45 101.938Z" fill="#FFA666"/>
<path opacity="0.2" d="M109.042 102.071C109.069 101.595 109.001 101.118 108.843 100.668C108.685 100.218 108.439 99.8041 108.119 99.4496C107.8 99.0951 107.414 98.8073 106.983 98.6027C106.552 98.3982 106.084 98.281 105.607 98.2578" stroke="black" stroke-width="0.5" stroke-linecap="round" stroke-linejoin="round"/>
<path d="M120.071 98.2101C120.004 99.2588 120.471 100.184 121.12 100.269C121.769 100.355 122.351 99.5734 122.427 98.5247C122.504 97.4761 122.027 96.5514 121.378 96.4561C120.729 96.3607 120.147 97.171 120.071 98.2101Z" fill="#263238"/>
<path d="M129.743 99.316C129.686 100.336 130.153 101.223 130.802 101.318C131.451 101.413 132.023 100.651 132.09 99.6306C132.157 98.6105 131.689 97.724 131.04 97.6286C130.392 97.5333 129.743 98.2959 129.743 99.316Z" fill="#263238"/>
<path d="M119.174 94.3874C119.236 94.4012 119.301 94.4016 119.364 94.3884C119.426 94.3752 119.485 94.3489 119.537 94.3111C120.009 93.9491 120.565 93.7107 121.153 93.6175C121.741 93.5242 122.343 93.5792 122.904 93.7772C122.962 93.8017 123.023 93.8141 123.086 93.8138C123.148 93.8135 123.21 93.8005 123.267 93.7755C123.324 93.7505 123.376 93.714 123.418 93.6684C123.461 93.6228 123.494 93.569 123.515 93.5103C123.554 93.3848 123.546 93.2493 123.491 93.1297C123.436 93.0101 123.34 92.9148 123.219 92.8621C122.514 92.6004 121.755 92.5209 121.011 92.6309C120.267 92.7409 119.563 93.0368 118.964 93.4913C118.864 93.572 118.798 93.6879 118.78 93.8155C118.762 93.9431 118.794 94.0726 118.869 94.1776C118.945 94.2784 119.052 94.3519 119.174 94.3874Z" fill="#263238"/>
<path d="M134.437 94.7496C134.49 94.739 134.54 94.7163 134.583 94.6833C134.626 94.6502 134.661 94.6077 134.685 94.559C134.737 94.4465 134.749 94.3193 134.718 94.1992C134.686 94.0792 134.614 93.9738 134.513 93.9012C133.969 93.4489 133.316 93.1454 132.619 93.0201C131.921 92.8948 131.204 92.952 130.535 93.1862C130.483 93.2142 130.437 93.2522 130.4 93.2981C130.362 93.344 130.334 93.3968 130.317 93.4535C130.301 93.5102 130.295 93.5697 130.301 93.6286C130.308 93.6874 130.326 93.7444 130.354 93.7963C130.399 93.9089 130.485 94.0002 130.595 94.0515C130.705 94.1029 130.83 94.1105 130.945 94.0728C131.478 93.8947 132.047 93.8564 132.598 93.9615C133.15 94.0667 133.665 94.3119 134.094 94.6734C134.142 94.7102 134.198 94.736 134.257 94.7492C134.316 94.7624 134.378 94.7625 134.437 94.7496Z" fill="#263238"/>
<path d="M127.768 98.5152C128.418 100.724 129.291 102.861 130.373 104.893C130.433 104.996 130.467 105.112 130.474 105.231C130.481 105.349 130.46 105.468 130.413 105.578C130.366 105.687 130.293 105.784 130.202 105.86C130.11 105.937 130.002 105.991 129.886 106.018C128.992 106.18 128.071 106.091 127.225 105.76L127.768 98.5152Z" fill="#E57C35"/>
<path d="M120.871 96.4942L123.208 96.2177C123.208 96.2177 121.768 97.7621 120.871 96.4942Z" fill="#263238"/>
<path d="M130.746 97.6286L133.074 97.3522C133.074 97.3522 131.652 98.8965 130.746 97.6286Z" fill="#263238"/>
<path d="M126.728 108.506C125.996 109.362 125.326 110.27 124.725 111.223C124.544 111.147 124.353 111.07 124.181 110.985C121.71 109.917 120.919 108.601 120.785 107.467C120.736 106.911 120.821 106.352 121.033 105.837C121.143 105.541 121.294 105.261 121.481 105.007C122.435 106.361 124.677 107.543 125.889 108.125C126.395 108.372 126.728 108.506 126.728 108.506Z" fill="#263238"/>
<path d="M125.928 108.125L125.318 108.906C122.99 107.886 121.502 106.857 121.072 105.837C121.182 105.541 121.333 105.261 121.521 105.007C122.446 106.361 124.678 107.543 125.928 108.125Z" fill="white"/>
<path d="M124.181 110.985C121.711 109.917 120.919 108.601 120.785 107.467C121.717 107.893 122.566 108.481 123.294 109.202C123.769 109.689 124.08 110.312 124.181 110.985Z" fill="#F54948"/>
<path d="M111.427 96.1414C111.427 96.1414 117.256 89.8591 117.59 84.349C117.59 84.349 137.929 80.4595 135.563 97.8288C135.563 97.8288 140.333 82.8809 123.924 79.9447C107.515 77.0085 103.461 98.458 110.73 106.18C110.759 106.104 107.802 100.088 111.427 96.1414Z" fill="#263238"/>
<path d="M131.366 82.3184C133.482 84.4642 134.856 87.2301 135.287 90.2119C135.23 92.3568 132.253 93.8249 132.253 93.8249L128.819 89.0584L128.695 93.1767C126.235 92.935 123.894 92.0004 121.945 90.4815C119.997 88.9626 118.519 86.9219 117.686 84.5969L121.12 78.877C121.12 78.877 129.477 80.5834 131.366 82.3184Z" fill="#263238"/>
<path d="M137.814 128.63C137.881 128.564 138.158 128.545 138.568 128.63C139.808 128.897 142.336 130.146 144.511 134.045C147.373 139.222 152.592 158.421 153.889 156.381C155.187 154.341 158.421 144.465 158.421 144.465L165.194 143.454C165.194 143.454 165.08 167.535 159.594 172.454C154.109 177.373 149.577 173.941 146.992 171.548C144.702 169.423 134.265 146.762 134.256 146.762" fill="#407BFF"/>
<path opacity="0.4" d="M137.814 128.63C137.881 128.564 138.158 128.545 138.568 128.63C139.808 128.897 142.336 130.146 144.511 134.045C147.373 139.222 152.592 158.421 153.889 156.381C155.187 154.341 158.421 144.465 158.421 144.465L165.194 143.454C165.194 143.454 165.08 167.535 159.594 172.454C154.109 177.373 149.777 173.932 146.992 171.529C144.654 169.489 134.265 146.743 134.256 146.743" fill="white"/>
<path d="M134.925 144.703C133.303 149.555 132.063 153.75 131.013 157.525C128.258 166.962 126.48 176.658 125.709 186.458L86.7476 182.273C85.7268 154.446 86.7476 139.107 87.5966 131.471C88.5506 123.339 89.8099 123.063 89.8099 123.063C89.8099 123.063 98.6726 122.377 106.362 122.596C112.313 122.911 118.233 123.653 124.078 124.817C129.623 125.845 135.085 127.279 140.42 129.107C139.466 131.633 138.607 134.064 137.806 136.324C136.747 139.326 135.783 142.11 134.925 144.703Z" fill="#407BFF"/>
<path opacity="0.4" d="M134.925 144.703C133.303 149.555 132.063 153.75 131.013 157.525C128.258 166.962 126.48 176.658 125.709 186.458L86.7476 182.273C85.7268 154.446 86.7476 139.107 87.5966 131.471C88.5506 123.339 89.8099 123.063 89.8099 123.063C89.8099 123.063 98.6726 122.377 106.362 122.596C112.313 122.911 118.233 123.653 124.078 124.817C129.623 125.845 135.085 127.279 140.42 129.107C139.466 131.633 138.607 134.064 137.806 136.324C136.747 139.326 135.783 142.11 134.925 144.703Z" fill="white"/>
<path opacity="0.2" d="M93.6642 176.734L108.804 168.908L118.354 167.192L127.884 170.443L129.411 164.084L113.364 160.328L86.3184 170.414L87.2437 176.305L93.6642 176.734Z" fill="black"/>
<path d="M153.098 115.703C151.867 116.075 130.097 126.8 134.59 152.883L158.192 152.063C158.192 152.063 155.702 142.997 159.308 136.724C162.915 130.451 173.485 124.407 173.256 124.531C173.027 124.655 153.098 115.703 153.098 115.703Z" fill="#407BFF"/>
<path opacity="0.7" d="M153.098 115.703C151.867 116.075 130.097 126.8 134.59 152.883L158.192 152.063C158.192 152.063 155.702 142.997 159.308 136.724C162.915 130.451 173.485 124.407 173.256 124.531C173.027 124.655 153.098 115.703 153.098 115.703Z" fill="white"/>
<path d="M137.786 155.933L131.309 146.743C131.309 146.743 114.69 148.65 114.471 149.165L109.386 161.043C109.281 161.296 109.28 161.58 109.384 161.833C109.487 162.087 109.687 162.289 109.939 162.397H109.996L131.137 169.623C131.381 169.702 131.645 169.688 131.879 169.584C132.113 169.48 132.301 169.294 132.406 169.06L137.701 157.153C137.832 156.76 137.861 156.341 137.786 155.933Z" fill="#407BFF"/>
<path opacity="0.1" d="M137.825 156.353C134.712 157.537 131.339 157.866 128.056 157.306C122.599 156.086 114.471 149.165 114.471 149.165C114.69 148.659 131.309 146.743 131.309 146.743L137.786 155.914C137.786 155.914 137.815 156.124 137.825 156.353Z" fill="black"/>
<path opacity="0.1" d="M115.566 149.47C122.592 152.881 130.097 155.202 137.823 156.353C137.823 156.353 125.23 152.168 115.566 149.47Z" fill="black"/>
<path d="M89.8096 123.063C89.8096 123.063 84.2287 123.826 79.8117 131.586C74.3739 141.119 61.6094 160.337 70.2717 172.969C78.934 185.6 107.249 166.038 107.249 166.038L104.282 158.536C104.282 158.536 82.7309 164.256 82.5115 162.177C82.0345 157.63 88.6457 145.876 88.6457 145.876L89.8096 123.063Z" fill="#407BFF"/>
<path d="M105.368 158.66C105.72 157.001 106.641 155.517 107.973 154.465C110.005 153.15 111.274 151.548 112.848 150.652C114.422 149.756 113.592 152.063 112.848 153.188C112.104 154.313 111.388 155.6 112.313 155.981C113.239 156.362 121.853 155.237 123.055 155.914C124.257 156.591 122.96 157.201 122.96 157.201C122.96 157.201 125.049 156.982 125.355 157.792C125.44 157.992 125.288 158.612 124.401 158.86C122.292 159.422 117.808 160.366 117.808 160.366C118.066 160.309 123.685 159.537 124.544 159.527C125.66 159.527 126.194 160.09 126.175 160.738C126.175 161.691 119.22 162.854 118.963 163.112C118.963 163.112 122.931 162.292 123.733 163.197C124.534 164.103 122.035 164.761 119.745 164.923C117.646 165.075 113.573 165.876 111.426 165.876C108.774 165.809 107.019 165.171 106.046 162.892C105.46 161.563 105.227 160.105 105.368 158.66Z" fill="#FFA666"/>
<path opacity="0.4" d="M89.8096 123.063C89.8096 123.063 84.2287 123.826 79.8117 131.586C74.3739 141.119 61.6094 160.337 70.2717 172.969C78.934 185.6 107.249 166.038 107.249 166.038L104.282 158.536C104.282 158.536 82.7309 164.256 82.5115 162.177C82.0345 157.63 88.6457 145.876 88.6457 145.876L89.8096 123.063Z" fill="white"/>
<g opacity="0.2">
<path d="M153.384 162.177C154.509 163.636 153.46 158.364 153.679 156.457C153.174 156.334 152.802 155.504 152.42 154.732C151.932 155.952 151.764 157.277 151.933 158.58C152.101 159.883 152.601 161.122 153.384 162.177Z" fill="black"/>
</g>
<path opacity="0.2" d="M154.329 131.09C154.205 131.261 150.37 136.314 151.352 138.716C152.335 141.119 157.42 143.483 157.42 143.483L158.049 139.755L154.329 131.09Z" fill="black"/>
<path d="M164.46 143.464L163.668 138.831C163.668 138.831 164.708 136.038 164.202 134.894C163.248 132.615 157.209 129.803 156.303 129.298C155.397 128.792 151.123 135.57 151.686 136.924C152.249 138.278 159.251 141.443 159.251 141.443V144.236L164.46 143.464Z" fill="#FFA666"/>
<path opacity="0.2" d="M86.4424 150.48L86.5473 150.28L90.3061 143.521C90.1057 149.946 89.1804 155.847 86.3184 160.337" fill="black"/>
<path d="M97.5655 373.002C97.4891 373.46 101.734 386.663 101.734 386.663H111.618L110.597 372.135L97.5655 373.002Z" fill="#FFA666"/>
<path d="M148.003 370.953C147.917 371.41 152.172 384.614 152.172 384.614H162.027L158.526 364.699L148.003 370.953Z" fill="#FFA666"/>
<path d="M95.7422 122.672C97.832 126.03 100.641 128.883 103.966 131.026C107.292 133.169 111.052 134.548 114.975 135.065C128.13 136.571 132.691 126.724 132.691 126.724C132.691 126.724 114.975 120.356 95.7422 122.672Z" fill="#FFA666"/>
<path d="M169.906 366.243C169.906 366.31 169.963 366.339 169.983 366.329C170.002 366.319 169.992 366.253 169.906 366.243Z" fill="#263238"/>
<path d="M102.955 220.482C105.493 222.77 121.081 329.903 146.314 371.315C146.314 371.315 161.435 367.32 163.009 367.502C161.225 363.984 138.597 256.374 135.181 211.568L102.955 220.482Z" fill="#263238"/>
<path d="M86.6324 175.924C86.6324 175.924 73.8011 188.269 73.4576 213.399C73.1142 238.528 86.5084 358.884 97.0691 374.899C97.0691 374.899 115.5 374.69 113.774 374.899C112.047 375.109 103.032 270.788 110.091 231.588L135.181 211.568C133.932 198.823 131.308 188.012 126.3 180.538L86.6324 175.924Z" fill="#263238"/>
<path opacity="0.2" d="M108.432 245.096L107.859 221.531L113.364 216.497C112.544 216.907 113.746 266.737 112.83 266.336L108.432 245.096Z" fill="black"/>
<path d="M112.877 383.327L109.423 383.231C109.035 383.228 108.651 383.312 108.299 383.477C107.947 383.642 107.637 383.884 107.391 384.185C105.235 386.72 103.795 385.691 101.782 383.231C100.408 383.041 99.9407 384.537 99.8071 384.938L96.6589 393.823C96.5962 394.001 96.5714 394.191 96.5862 394.38C96.6009 394.569 96.6549 394.752 96.7447 394.919C96.8344 395.086 96.958 395.232 97.1075 395.349C97.257 395.465 97.4291 395.549 97.6129 395.596C97.7532 395.633 97.8971 395.656 98.0422 395.662L109.49 395.987L125.479 396.444C129.839 396.568 131.003 392.412 129.238 391.973C121.272 390.066 115.691 387.616 113.335 385.3C112.81 384.833 113.306 384.556 112.877 383.327Z" fill="#263238"/>
<path d="M120.203 386.091C120.389 385.98 120.546 385.826 120.66 385.642C120.775 385.458 120.844 385.249 120.861 385.033C120.885 384.921 120.874 384.804 120.83 384.699C120.785 384.593 120.71 384.504 120.613 384.442C119.573 383.679 115.137 385.481 114.632 385.691C114.604 385.7 114.579 385.715 114.558 385.735C114.536 385.755 114.519 385.779 114.508 385.805C114.498 385.828 114.494 385.852 114.494 385.876C114.494 385.9 114.5 385.924 114.509 385.947C114.519 385.969 114.533 385.989 114.551 386.006C114.569 386.022 114.59 386.035 114.613 386.044C115.666 386.311 116.742 386.473 117.828 386.53C118.645 386.625 119.473 386.472 120.203 386.091ZM120.327 384.747C120.368 384.772 120.399 384.81 120.417 384.855C120.434 384.9 120.436 384.949 120.422 384.995C120.402 385.151 120.349 385.302 120.267 385.436C120.185 385.571 120.075 385.687 119.945 385.777C118.915 386.444 116.568 386.072 115.309 385.777C117.169 385.071 119.774 384.337 120.346 384.747H120.327Z" fill="#407BFF"/>
<path d="M114.774 386.091C116.1 385.605 118.953 383.651 118.877 382.573C118.877 382.345 118.714 382.078 118.132 381.982C115.776 381.658 114.507 385.681 114.498 385.853C114.479 385.881 114.469 385.914 114.469 385.948C114.469 385.982 114.479 386.015 114.498 386.044C114.544 386.058 114.594 386.058 114.641 386.044L114.774 386.091ZM118.027 382.278C118.466 382.326 118.457 382.478 118.457 382.535C118.543 383.193 116.453 384.823 115.003 385.491C115.356 384.537 116.368 382.211 117.865 382.259L118.027 382.278Z" fill="#407BFF"/>
<path d="M115.119 385.939C114.522 386.003 113.944 386.189 113.421 386.484C112.898 386.779 112.44 387.177 112.076 387.655" stroke="#407BFF" stroke-width="0.5" stroke-linecap="round" stroke-linejoin="round"/>
<path d="M117.18 387.54C116.58 387.604 115.999 387.79 115.474 388.086C114.949 388.383 114.491 388.785 114.127 389.266" stroke="#407BFF" stroke-width="0.5" stroke-linecap="round" stroke-linejoin="round"/>
<path d="M119.764 388.884C119.167 388.949 118.589 389.135 118.066 389.43C117.543 389.725 117.085 390.123 116.721 390.6" stroke="#407BFF" stroke-width="0.5" stroke-linecap="round" stroke-linejoin="round"/>
<path d="M162.78 377.664L159.431 378.551C159.061 378.657 158.719 378.844 158.428 379.098C158.138 379.352 157.908 379.666 157.752 380.019C156.407 383.06 154.738 382.497 152.095 380.676C150.721 380.877 150.702 382.45 150.693 382.869L150.216 392.288C150.204 392.474 150.231 392.66 150.295 392.835C150.359 393.01 150.458 393.17 150.588 393.305C150.717 393.439 150.873 393.545 151.045 393.616C151.218 393.688 151.403 393.722 151.589 393.718C151.735 393.722 151.88 393.703 152.019 393.661L163.047 390.715L178.502 386.596C182.718 385.472 182.642 381.153 180.82 381.239C172.635 381.658 166.596 380.924 163.648 379.389C163.133 379.123 163.533 378.713 162.78 377.664Z" fill="#263238"/>
<path d="M170.614 378.207C170.757 378.046 170.861 377.853 170.917 377.645C170.974 377.436 170.981 377.218 170.938 377.006C170.925 376.894 170.88 376.787 170.807 376.701C170.734 376.614 170.637 376.551 170.528 376.52C169.316 376.081 165.576 379.075 165.157 379.38C165.132 379.396 165.112 379.417 165.097 379.441C165.082 379.466 165.073 379.494 165.071 379.523C165.067 379.547 165.068 379.571 165.074 379.595C165.08 379.619 165.091 379.641 165.107 379.66C165.122 379.679 165.141 379.694 165.163 379.705C165.185 379.716 165.209 379.722 165.233 379.723C166.32 379.678 167.4 379.528 168.457 379.275C169.266 379.141 170.017 378.77 170.614 378.207ZM170.337 376.892C170.383 376.904 170.424 376.931 170.453 376.969C170.483 377.007 170.499 377.054 170.499 377.101C170.526 377.255 170.52 377.414 170.48 377.565C170.441 377.716 170.369 377.857 170.27 377.978C169.478 378.932 167.112 379.237 165.834 379.342C167.399 378.141 169.669 376.653 170.337 376.892Z" fill="#407BFF"/>
<path d="M165.385 379.761C166.52 378.922 168.695 376.234 168.304 375.223C168.237 375.014 168.009 374.794 167.427 374.871C165.08 375.233 165.013 379.447 165.051 379.637C165.046 379.672 165.053 379.708 165.07 379.739C165.087 379.77 165.114 379.795 165.147 379.809C165.191 379.818 165.236 379.818 165.28 379.809L165.385 379.761ZM167.427 375.214C167.856 375.147 167.894 375.29 167.904 375.347C168.171 375.948 166.644 378.112 165.442 379.161C165.509 378.16 165.814 375.624 167.264 375.233L167.427 375.214Z" fill="#407BFF"/>
<path d="M165.671 379.523C165.114 379.753 164.611 380.095 164.193 380.528C163.774 380.961 163.449 381.476 163.238 382.04" stroke="#407BFF" stroke-width="0.5" stroke-linecap="round" stroke-linejoin="round"/>
<path d="M168.105 380.476C167.547 380.705 167.043 381.047 166.624 381.48C166.206 381.913 165.881 382.428 165.672 382.993" stroke="#407BFF" stroke-width="0.5" stroke-linecap="round" stroke-linejoin="round"/>
<path d="M170.976 381.048C170.419 381.278 169.916 381.621 169.497 382.054C169.079 382.487 168.754 383.001 168.543 383.565" stroke="#407BFF" stroke-width="0.5" stroke-linecap="round" stroke-linejoin="round"/>
</g>
<defs>
<clipPath id="clip0_2271_12259">
<rect width="477" height="400" fill="white"/>
</clipPath>
</defs>
</svg>
