<svg width="106" height="19" viewBox="0 0 106 19" fill="none" xmlns="http://www.w3.org/2000/svg">
<g clip-path="url(#clip0_6001_3494)">
<path d="M9 14.195L3.71025 17.156L4.8915 11.21L0.441002 7.094L6.46125 6.38L9 0.875L11.5388 6.38L17.559 7.094L13.1085 11.21L14.2898 17.156L9 14.195Z" fill="#FFC700"/>
</g>
<g clip-path="url(#clip1_6001_3494)">
<path d="M31 14.195L25.7103 17.156L26.8915 11.21L22.441 7.094L28.4613 6.38L31 0.875L33.5388 6.38L39.559 7.094L35.1085 11.21L36.2898 17.156L31 14.195Z" fill="#FFC700"/>
</g>
<g clip-path="url(#clip2_6001_3494)">
<path d="M53 14.195L47.7102 17.156L48.8915 11.21L44.441 7.094L50.4612 6.38L53 0.875L55.5387 6.38L61.559 7.094L57.1085 11.21L58.2897 17.156L53 14.195Z" fill="#FFC700"/>
</g>
<g clip-path="url(#clip3_6001_3494)">
<path d="M75 14.195L69.7102 17.156L70.8915 11.21L66.441 7.094L72.4612 6.38L75 0.875L77.5387 6.38L83.559 7.094L79.1085 11.21L80.2897 17.156L75 14.195Z" fill="#FFC700"/>
</g>
<g clip-path="url(#clip4_6001_3494)">
<path d="M97 14.195L91.7102 17.156L92.8915 11.21L88.441 7.094L94.4612 6.38L97 0.875L99.5387 6.38L105.559 7.094L101.108 11.21L102.29 17.156L97 14.195Z" fill="#FFC700"/>
</g>
<defs>
<clipPath id="clip0_6001_3494">
<rect width="18" height="18" fill="white" transform="translate(0 0.5)"/>
</clipPath>
<clipPath id="clip1_6001_3494">
<rect width="18" height="18" fill="white" transform="translate(22 0.5)"/>
</clipPath>
<clipPath id="clip2_6001_3494">
<rect width="18" height="18" fill="white" transform="translate(44 0.5)"/>
</clipPath>
<clipPath id="clip3_6001_3494">
<rect width="18" height="18" fill="white" transform="translate(66 0.5)"/>
</clipPath>
<clipPath id="clip4_6001_3494">
<rect width="18" height="18" fill="white" transform="translate(88 0.5)"/>
</clipPath>
</defs>
</svg>
