<svg width="50" height="50" viewBox="0 0 50 50" fill="none" xmlns="http://www.w3.org/2000/svg">
<g clip-path="url(#clip0_2088_3999)">
<path d="M25 49.9687C38.7898 49.9687 49.9687 38.7898 49.9687 25C49.9687 11.2101 38.7898 0.03125 25 0.03125C11.2101 0.03125 0.03125 11.2101 0.03125 25C0.03125 38.7898 11.2101 49.9687 25 49.9687Z" fill="url(#paint0_linear_2088_3999)"/>
<path d="M10.422 24.7836L27.2362 17.8558C28.8959 17.1342 34.5247 14.825 34.5247 14.825C34.5247 14.825 37.1226 13.8147 36.9061 16.2682C36.834 17.2785 36.2567 20.8146 35.6794 24.6392L33.8753 35.969C33.8753 35.969 33.7309 37.6288 32.5041 37.9174C31.2773 38.2061 29.2568 36.9071 28.8959 36.6185C28.6073 36.402 23.4836 33.1546 21.6074 31.567C21.1022 31.134 20.5249 30.268 21.6795 29.2577C24.2774 26.8763 27.3805 23.9176 29.2568 22.0413C30.1227 21.1754 30.9887 19.1548 27.3805 21.6084L17.2054 28.4639C17.2054 28.4639 16.0508 29.1856 13.8858 28.5361C11.7209 27.8866 9.19518 27.0207 9.19518 27.0207C9.19518 27.0207 7.46324 25.9382 10.422 24.7836Z" fill="white"/>
</g>
<defs>
<linearGradient id="paint0_linear_2088_3999" x1="33.3248" y1="8.35608" x2="20.8404" y2="37.4843" gradientUnits="userSpaceOnUse">
<stop stop-color="#37AEE2"/>
<stop offset="1" stop-color="#1E96C8"/>
</linearGradient>
<clipPath id="clip0_2088_3999">
<rect width="50" height="50" fill="white"/>
</clipPath>
</defs>
</svg>
