<svg width="50" height="50" viewBox="0 0 50 50" fill="none" xmlns="http://www.w3.org/2000/svg">
<g clip-path="url(#clip0_2088_3896)">
<path d="M25 50C38.8071 50 50 38.8071 50 25C50 11.1929 38.8071 0 25 0C11.1929 0 0 11.1929 0 25C0 38.8071 11.1929 50 25 50Z" fill="#6F3FAA"/>
<path d="M35.8448 13.7152C29.7597 12.2455 23.6637 10.5264 17.4233 12.7105C13.3828 14.2257 13.3828 18.6028 13.5512 22.3065C13.5512 23.3166 12.3728 24.6635 12.8778 25.8419C13.8878 29.2089 14.7296 32.5759 18.265 34.2594C18.77 34.5961 18.265 35.2694 18.6017 35.7745C18.4333 35.7745 18.0966 35.9429 18.0966 36.1112C18.0966 36.9182 18.4587 38.1524 18.2182 38.9481L28.961 49.6864C40.0049 47.9276 48.6365 38.9376 49.851 27.7215L35.8448 13.7152Z" fill="#6F3FAA"/>
<path d="M38.2259 17.5706L38.2177 17.5376C37.5497 14.8371 34.5382 11.9395 31.7726 11.3366L31.7414 11.3302C27.2682 10.4769 22.7325 10.4769 18.2603 11.3302L18.2281 11.3366C15.4635 11.9395 12.4519 14.8373 11.783 17.5376L11.7756 17.5706C10.9498 21.3418 10.9498 25.1664 11.7756 28.9376L11.783 28.9706C12.4234 31.5558 15.2106 34.3204 17.873 35.0807V38.0951C17.873 39.1862 19.2026 39.7221 19.9587 38.9347L23.0129 35.76C23.6754 35.797 24.3382 35.8177 25.0008 35.8177C27.2524 35.8177 29.5052 35.6047 31.7413 35.1781L31.7725 35.1717C34.5381 34.5688 37.5496 31.671 38.2176 28.9707L38.2258 28.9377C39.0516 25.1664 39.0516 21.342 38.2259 17.5706ZM35.8088 28.3908C35.3628 30.1526 33.0763 32.3429 31.2595 32.7476C28.8811 33.1999 26.4837 33.3932 24.0888 33.3269C24.0411 33.3255 23.9953 33.344 23.9622 33.3782C23.6223 33.7271 21.7322 35.6675 21.7322 35.6675L19.3604 38.1019C19.1869 38.2827 18.8822 38.1596 18.8822 37.9101V32.9163C18.8822 32.8338 18.8233 32.7638 18.7423 32.7478C18.7418 32.7476 18.7414 32.7476 18.7409 32.7475C16.9241 32.3428 14.6384 30.1525 14.1916 28.3907C13.4483 24.9819 13.4483 21.5263 14.1916 18.1175C14.6384 16.3557 16.9241 14.1654 18.7409 13.7607C22.8948 12.9707 27.1065 12.9707 31.2596 13.7607C33.0772 14.1654 35.3629 16.3557 35.8089 18.1175C36.5529 21.5264 36.5529 24.982 35.8088 28.3908Z" fill="white"/>
<path d="M28.9531 30.6958C28.6738 30.611 28.4077 30.554 28.1603 30.4516C25.5987 29.3888 23.2413 28.0177 21.374 25.916C20.3121 24.7209 19.481 23.3716 18.7784 21.9437C18.4452 21.2665 18.1645 20.5629 17.8782 19.8637C17.6173 19.2262 18.0017 18.5676 18.4063 18.0871C18.7861 17.6363 19.2749 17.2913 19.8042 17.0369C20.2173 16.8385 20.6247 16.953 20.9265 17.3031C21.5786 18.0601 22.1778 18.8558 22.6628 19.7333C22.9611 20.2731 22.8793 20.9328 22.3386 21.3001C22.2071 21.3894 22.0874 21.4943 21.965 21.5951C21.8576 21.6834 21.7566 21.7727 21.683 21.8923C21.5485 22.1112 21.5421 22.3695 21.6286 22.6075C22.2953 24.4396 23.419 25.8644 25.2633 26.6319C25.5584 26.7546 25.8547 26.8975 26.1947 26.8579C26.7641 26.7914 26.9484 26.1668 27.3475 25.8406C27.7374 25.5217 28.2358 25.5175 28.6559 25.7833C29.0761 26.0494 29.4833 26.3347 29.8882 26.6233C30.2856 26.9065 30.6812 27.1833 31.0478 27.5063C31.4003 27.8167 31.5217 28.224 31.3231 28.6452C30.9599 29.4167 30.4311 30.0584 29.6685 30.4682C29.4531 30.5836 29.1959 30.621 28.9531 30.6958C29.1959 30.621 28.6738 30.611 28.9531 30.6958Z" fill="white"/>
<path d="M25.0062 16.1549C28.3567 16.2488 31.1087 18.4724 31.6984 21.7849C31.7989 22.3493 31.8347 22.9263 31.8794 23.4992C31.8983 23.7401 31.7617 23.969 31.5018 23.9723C31.2332 23.9755 31.1124 23.7507 31.0948 23.51C31.0604 23.0332 31.0364 22.5542 30.9707 22.0815C30.6239 19.5856 28.6337 17.5206 26.1493 17.0775C25.7754 17.0108 25.393 16.9934 25.0142 16.9536C24.7748 16.9285 24.4613 16.9141 24.4083 16.6164C24.3639 16.3669 24.5744 16.1683 24.812 16.1555C24.8764 16.1517 24.9413 16.1547 25.0062 16.1549C28.3568 16.2488 24.9413 16.1547 25.0062 16.1549Z" fill="white"/>
<path d="M30.1 22.7557C30.0944 22.7976 30.0916 22.896 30.067 22.9886C29.9781 23.3249 29.468 23.367 29.3507 23.0276C29.3158 22.9269 29.3107 22.8123 29.3105 22.7039C29.3093 21.9943 29.1551 21.2853 28.7972 20.6678C28.4293 20.0332 27.8672 19.4999 27.2081 19.1769C26.8095 18.9818 26.3785 18.8604 25.9416 18.7883C25.7507 18.7566 25.5577 18.7376 25.3658 18.7108C25.1333 18.6785 25.0091 18.5303 25.0202 18.3012C25.0305 18.0866 25.1874 17.932 25.4214 17.9454C26.1902 17.9889 26.933 18.1553 27.6167 18.5173C29.0067 19.2535 29.8009 20.4154 30.0327 21.9671C30.0432 22.0375 30.06 22.107 30.0653 22.1775C30.0784 22.3515 30.0867 22.5259 30.1 22.7557C30.0944 22.7974 30.0867 22.5259 30.1 22.7557Z" fill="white"/>
<path d="M28.0148 22.6744C27.7345 22.6795 27.5845 22.5242 27.5555 22.2674C27.5355 22.0883 27.5195 21.9066 27.4767 21.7322C27.3925 21.3888 27.21 21.0706 26.9211 20.8601C26.7848 20.7608 26.6302 20.6885 26.4684 20.6416C26.2628 20.5821 26.0492 20.5985 25.8442 20.5483C25.6214 20.4937 25.4982 20.3133 25.5332 20.1044C25.5651 19.9141 25.75 19.7657 25.958 19.7808C27.257 19.8746 28.1854 20.5462 28.3179 22.0755C28.3274 22.1834 28.3383 22.2974 28.3144 22.4008C28.2732 22.5772 28.1423 22.6658 28.0148 22.6744C28.1423 22.6658 27.7344 22.6794 28.0148 22.6744Z" fill="white"/>
<path d="M38.2248 17.5707L38.2166 17.5377C37.8422 16.0239 36.7311 14.4483 35.3398 13.2495L33.4591 14.9163C34.5774 15.8074 35.5356 17.0419 35.8079 18.1175C36.5521 21.5264 36.5521 24.9819 35.8079 28.3909C35.3619 30.1527 33.0753 32.343 31.2586 32.7477C28.8802 33.2 26.4828 33.3933 24.0879 33.327C24.0402 33.3256 23.9944 33.3441 23.9613 33.3783C23.6214 33.7271 21.7313 35.6676 21.7313 35.6676L19.3595 38.102C19.186 38.2828 18.8813 38.1599 18.8813 37.9102V32.9164C18.8813 32.8339 18.8225 32.7639 18.7414 32.7479C18.7409 32.7479 18.7405 32.7477 18.74 32.7477C17.7075 32.5177 16.524 31.7107 15.6123 30.7339L13.7539 32.3807C14.9146 33.6433 16.4115 34.664 17.8719 35.081V38.0954C17.8719 39.1865 19.2015 39.7224 19.9575 38.935L23.0117 35.7603C23.6742 35.7973 24.3368 35.818 24.9996 35.818C27.2513 35.818 29.504 35.605 31.7401 35.1784L31.7713 35.1721C34.5369 34.5692 37.5484 31.6716 38.2164 28.9711L38.2246 28.9381C39.0505 25.1665 39.0505 21.3421 38.2248 17.5707Z" fill="white"/>
<path d="M28.9519 30.6959C28.6726 30.6111 29.1946 30.6211 28.9519 30.6959V30.6959Z" fill="white"/>
<path d="M31.0479 27.5062C30.6814 27.1834 30.2856 26.9063 29.8884 26.6231C29.4835 26.3346 29.0763 26.0492 28.6561 25.7832C28.236 25.5174 27.7377 25.5216 27.3477 25.8404C26.9486 26.1667 26.7644 26.7913 26.1949 26.8578C25.855 26.8974 25.5586 26.7544 25.2635 26.6317C24.1288 26.1597 23.2679 25.4378 22.6172 24.5264L21.2344 25.752C21.2813 25.8063 21.3262 25.8622 21.3739 25.9159C23.2413 28.0176 25.5988 29.3887 28.1603 30.4515C28.4074 30.554 28.6737 30.611 28.953 30.6957C28.6737 30.6108 29.196 30.621 28.953 30.6957C29.196 30.621 29.453 30.5834 29.6686 30.468C30.4313 30.0582 30.96 29.4164 31.3232 28.6449C31.5219 28.2238 31.4005 27.8166 31.0479 27.5062Z" fill="white"/>
<path d="M25.016 16.1554C25.0129 16.1554 25.0099 16.1551 25.0069 16.1551C25.0039 16.1549 25.0077 16.1551 25.016 16.1554Z" fill="white"/>
<path d="M25.0059 16.1548C25.0087 16.1548 25.0114 16.1551 25.0143 16.1551C25.2002 16.1617 28.2244 16.245 25.0059 16.1548Z" fill="white"/>
<path d="M29.8142 18.1482L29.2246 18.6708C30.1511 19.5721 30.7899 20.7667 30.9726 22.0814C31.0382 22.5542 31.0623 23.0331 31.0968 23.5098C31.1143 23.7507 31.235 23.9754 31.5037 23.9723C31.7638 23.9691 31.9002 23.7403 31.8813 23.4993C31.8365 22.9264 31.8009 22.3493 31.7004 21.7849C31.4423 20.3349 30.7697 19.0936 29.8142 18.1482Z" fill="white"/>
<path d="M30.0322 21.9667C29.8634 20.836 29.3943 19.9134 28.6152 19.2104L28.0273 19.7314C28.3313 20.0013 28.5943 20.3182 28.7969 20.6677C29.1548 21.2852 29.309 21.9941 29.3102 22.7037C29.3104 22.8121 29.3155 22.9268 29.3504 23.0276C29.4679 23.3672 29.9778 23.3251 30.0667 22.9886C30.0913 22.8958 30.0941 22.7975 30.0997 22.7558C30.0862 22.526 30.0941 22.7977 30.0997 22.7558C30.0862 22.526 30.078 22.3516 30.0648 22.1773C30.0597 22.1065 30.0428 22.037 30.0322 21.9667Z" fill="white"/>
<path d="M30.0991 22.7559C30.0859 22.526 30.0936 22.7976 30.0991 22.7559V22.7559Z" fill="white"/>
<path d="M28.0136 22.6746C28.0179 22.6743 28.0221 22.6721 28.0262 22.6716C28.0146 22.6716 27.9968 22.6719 27.9785 22.6726C27.9904 22.6729 28.0012 22.6747 28.0136 22.6746Z" fill="white"/>
<path d="M28.0147 22.6744C28.0021 22.6746 27.9909 22.6728 27.9788 22.6724C27.9182 22.674 27.8556 22.6772 28.0147 22.6744Z" fill="white"/>
<path d="M28.0282 22.6716C28.0239 22.6721 28.0197 22.6743 28.0156 22.6746C28.0478 22.6724 28.045 22.6716 28.0282 22.6716Z" fill="white"/>
<path d="M27.4227 20.2661L26.8242 20.7966C26.8572 20.8166 26.8895 20.8375 26.9209 20.8603C27.2098 21.0707 27.3923 21.3889 27.4765 21.7323C27.5192 21.9067 27.5351 22.0882 27.5553 22.2675C27.5829 22.5129 27.7223 22.6638 27.9787 22.6726C27.9974 22.6721 28.0157 22.6717 28.0273 22.6716C28.1508 22.6579 28.2745 22.5714 28.3141 22.4007C28.338 22.2975 28.327 22.1833 28.3176 22.0754C28.2432 21.2204 27.9199 20.6338 27.4227 20.2661Z" fill="white"/>
</g>
<defs>
<clipPath id="clip0_2088_3896">
<rect width="50" height="50" fill="white"/>
</clipPath>
</defs>
</svg>
