<svg width="50" height="50" viewBox="0 0 50 50" fill="none" xmlns="http://www.w3.org/2000/svg">
<circle cx="25" cy="25" r="25" fill="#2288F5"/>
<g clip-path="url(#clip0_2088_4006)">
<path fill-rule="evenodd" clip-rule="evenodd" d="M36.45 19.948C36.616 19.402 36.45 19 35.655 19H33.03C32.362 19 32.054 19.347 31.887 19.73C31.887 19.73 30.552 22.926 28.661 25.002C28.049 25.604 27.771 25.795 27.437 25.795C27.27 25.795 27.019 25.604 27.019 25.057V19.948C27.019 19.292 26.835 19 26.279 19H22.151C21.734 19 21.483 19.304 21.483 19.593C21.483 20.214 22.429 20.358 22.526 22.106V25.904C22.526 26.737 22.373 26.888 22.039 26.888C21.149 26.888 18.984 23.677 17.699 20.003C17.45 19.288 17.198 19 16.527 19H13.9C13.15 19 13 19.347 13 19.73C13 20.412 13.89 23.8 17.145 28.281C19.315 31.341 22.37 33 25.153 33C26.822 33 27.028 32.632 27.028 31.997V29.684C27.028 28.947 27.186 28.8 27.715 28.8C28.105 28.8 28.772 28.992 30.33 30.467C32.11 32.216 32.403 33 33.405 33H36.03C36.78 33 37.156 32.632 36.94 31.904C36.702 31.18 35.852 30.129 34.725 28.882C34.113 28.172 33.195 27.407 32.916 27.024C32.527 26.533 32.638 26.314 32.916 25.877C32.916 25.877 36.116 21.451 36.449 19.948" fill="white"/>
</g>
<defs>
<clipPath id="clip0_2088_4006">
<rect width="24" height="24" fill="white" transform="translate(13 14)"/>
</clipPath>
</defs>
</svg>
