<svg width="220" height="60" viewBox="0 0 220 60" fill="none" xmlns="http://www.w3.org/2000/svg">
<path d="M73.6467 38.5455V48H71.9478V39.9673H67.8114V48H66.1126V38.5455H73.6467ZM75.6952 48V38.5455H81.8444V39.9812H77.4079V42.5479H81.5258V43.9837H77.4079V46.5643H81.8813V48H75.6952ZM83.5917 48V38.5455H87.1372C87.8635 38.5455 88.4729 38.6809 88.9653 38.9517C89.4608 39.2225 89.8347 39.5949 90.0871 40.0689C90.3425 40.5398 90.4703 41.0753 90.4703 41.6754C90.4703 42.2817 90.3425 42.8203 90.0871 43.2912C89.8316 43.7621 89.4546 44.1329 88.9561 44.4038C88.4575 44.6715 87.8435 44.8054 87.1141 44.8054H84.7643V43.3974H86.8833C87.308 43.3974 87.6557 43.3235 87.9266 43.1758C88.1974 43.0281 88.3975 42.8249 88.5267 42.5664C88.6591 42.3079 88.7252 42.0109 88.7252 41.6754C88.7252 41.34 88.6591 41.0445 88.5267 40.7891C88.3975 40.5336 88.1959 40.3351 87.922 40.1935C87.6511 40.0489 87.3018 39.9766 86.874 39.9766H85.3044V48H83.5917ZM100.051 41.7354H98.324C98.2748 41.4523 98.184 41.2015 98.0517 40.983C97.9193 40.7614 97.7547 40.5736 97.5577 40.4197C97.3607 40.2659 97.1361 40.1504 96.8837 40.0735C96.6344 39.9935 96.3651 39.9535 96.0758 39.9535C95.5618 39.9535 95.1064 40.0827 94.7093 40.3413C94.3123 40.5967 94.0015 40.9722 93.7768 41.4677C93.5521 41.9601 93.4398 42.5618 93.4398 43.2727C93.4398 43.996 93.5521 44.6054 93.7768 45.1009C94.0046 45.5933 94.3154 45.9657 94.7093 46.218C95.1064 46.4673 95.5603 46.592 96.0712 46.592C96.3543 46.592 96.619 46.555 96.8652 46.4812C97.1145 46.4042 97.3377 46.2919 97.5346 46.1442C97.7347 45.9964 97.9024 45.8149 98.0378 45.5994C98.1763 45.384 98.2717 45.1378 98.324 44.8608L100.051 44.87C99.986 45.3194 99.8459 45.741 99.6305 46.1349C99.4181 46.5289 99.1396 46.8767 98.7949 47.1783C98.4502 47.4768 98.0471 47.7107 97.5854 47.88C97.1238 48.0462 96.6113 48.1293 96.0481 48.1293C95.2172 48.1293 94.4754 47.9369 93.823 47.5522C93.1705 47.1675 92.6565 46.612 92.2811 45.8857C91.9056 45.1593 91.7179 44.2884 91.7179 43.2727C91.7179 42.254 91.9071 41.383 92.2857 40.6598C92.6642 39.9335 93.1797 39.378 93.8322 38.9933C94.4847 38.6085 95.2233 38.4162 96.0481 38.4162C96.5744 38.4162 97.0637 38.4901 97.5162 38.6378C97.9686 38.7855 98.3717 39.0025 98.7257 39.2887C99.0796 39.5719 99.3704 39.9196 99.5982 40.332C99.829 40.7414 99.9798 41.2092 100.051 41.7354ZM110.067 43.2727C110.067 44.2914 109.876 45.1639 109.495 45.8903C109.116 46.6135 108.599 47.1675 107.944 47.5522C107.291 47.9369 106.551 48.1293 105.723 48.1293C104.895 48.1293 104.153 47.9369 103.498 47.5522C102.845 47.1644 102.328 46.6089 101.947 45.8857C101.568 45.1593 101.379 44.2884 101.379 43.2727C101.379 42.254 101.568 41.383 101.947 40.6598C102.328 39.9335 102.845 39.378 103.498 38.9933C104.153 38.6085 104.895 38.4162 105.723 38.4162C106.551 38.4162 107.291 38.6085 107.944 38.9933C108.599 39.378 109.116 39.9335 109.495 40.6598C109.876 41.383 110.067 42.254 110.067 43.2727ZM108.345 43.2727C108.345 42.5556 108.233 41.9509 108.008 41.4585C107.787 40.9629 107.479 40.589 107.085 40.3366C106.691 40.0812 106.237 39.9535 105.723 39.9535C105.209 39.9535 104.755 40.0812 104.361 40.3366C103.967 40.589 103.658 40.9629 103.433 41.4585C103.212 41.9509 103.101 42.5556 103.101 43.2727C103.101 43.9898 103.212 44.5961 103.433 45.0916C103.658 45.584 103.967 45.958 104.361 46.2134C104.755 46.4658 105.209 46.592 105.723 46.592C106.237 46.592 106.691 46.4658 107.085 46.2134C107.479 45.958 107.787 45.584 108.008 45.0916C108.233 44.5961 108.345 43.9898 108.345 43.2727ZM111.686 48V38.5455H113.399V42.5479H117.78V38.5455H119.498V48H117.78V43.9837H113.399V48H111.686ZM122.574 48H120.746L124.075 38.5455H126.189L129.522 48H127.694L125.169 40.4844H125.095L122.574 48ZM122.634 44.293H127.62V45.6687H122.634V44.293ZM130.153 48V46.5781L130.421 46.5643C130.784 46.5427 131.072 46.4119 131.285 46.1719C131.5 45.9318 131.658 45.5456 131.76 45.0131C131.865 44.4807 131.934 43.7667 131.968 42.8711L132.125 38.5455H138.32V48H136.644V39.9535H133.722L133.574 43.402C133.531 44.4361 133.417 45.2932 133.233 45.9734C133.051 46.6535 132.753 47.1613 132.337 47.4968C131.925 47.8323 131.351 48 130.615 48H130.153ZM141.346 42.1971H143.747C144.47 42.1971 145.09 42.3156 145.607 42.5526C146.127 42.7865 146.526 43.1173 146.803 43.5451C147.08 43.9729 147.218 44.4761 147.218 45.0547C147.218 45.6364 147.08 46.1488 146.803 46.592C146.526 47.0321 146.127 47.3768 145.607 47.6261C145.09 47.8754 144.47 48 143.747 48H140.206V38.5455H141.923V46.5966H143.747C144.128 46.5966 144.451 46.5243 144.716 46.3796C144.981 46.235 145.181 46.0442 145.316 45.8072C145.455 45.5702 145.524 45.3132 145.524 45.0362C145.524 44.6361 145.37 44.296 145.062 44.016C144.758 43.7328 144.319 43.5913 143.747 43.5913H141.346V42.1971ZM148.884 48V38.5455H150.596V42.5479H154.977V38.5455H156.695V48H154.977V43.9837H150.596V48H148.884ZM159.716 42.1971H162.117C162.84 42.1971 163.46 42.3156 163.977 42.5526C164.497 42.7865 164.896 43.1173 165.173 43.5451C165.45 43.9729 165.588 44.4761 165.588 45.0547C165.588 45.6364 165.45 46.1488 165.173 46.592C164.896 47.0321 164.497 47.3768 163.977 47.6261C163.46 47.8754 162.84 48 162.117 48H158.576V38.5455H160.293V46.5966H162.117C162.498 46.5966 162.822 46.5243 163.086 46.3796C163.351 46.235 163.551 46.0442 163.686 45.8072C163.825 45.5702 163.894 45.3132 163.894 45.0362C163.894 44.6361 163.74 44.296 163.433 44.016C163.128 43.7328 162.689 43.5913 162.117 43.5913H159.716V42.1971ZM168.123 38.5455V48H166.406V38.5455H168.123ZM169.983 38.5455H171.682V44.9901H171.77L176.216 38.5455H177.753V48H176.04V41.56H175.962L171.502 48H169.983V38.5455ZM174.784 36.108H176.036C176.036 36.6465 175.84 37.0836 175.449 37.419C175.061 37.7514 174.535 37.9176 173.87 37.9176C173.212 37.9176 172.687 37.7514 172.296 37.419C171.908 37.0836 171.716 36.6465 171.719 36.108H172.961C172.961 36.3295 173.029 36.5281 173.164 36.7035C173.303 36.8758 173.538 36.962 173.87 36.962C174.197 36.962 174.429 36.8758 174.567 36.7035C174.709 36.5311 174.781 36.3326 174.784 36.108ZM188.924 38.5455V39.9812H184.556V48H182.844V38.5455H188.924ZM190.372 38.5455H192.071V44.9901H192.159L196.604 38.5455H198.142V48H196.429V41.56H196.35L191.891 48H190.372V38.5455ZM199.394 50.2805V46.6012H200.026C200.239 46.4319 200.437 46.1934 200.622 45.8857C200.806 45.5779 200.963 45.1562 201.093 44.6207C201.222 44.0852 201.311 43.3928 201.36 42.5433L201.61 38.5455H207.653V46.6012H208.705V50.2713H207.062V48H201.037V50.2805H199.394ZM202.021 46.6012H206.009V39.9812H203.152L203.004 42.5433C202.964 43.1866 202.899 43.7621 202.81 44.2699C202.721 44.7777 202.608 45.2255 202.473 45.6133C202.338 45.998 202.187 46.3273 202.021 46.6012Z" fill="#222222"/>
<path d="M65.7812 14.3871V10.8182H81.1488V14.3871H75.6357V29H71.3033V14.3871H65.7812ZM99.6258 19.9091C99.6258 21.9096 99.2411 23.6052 98.4717 24.9961C97.7023 26.387 96.6606 27.4434 95.3467 28.1655C94.0387 28.8875 92.5709 29.2486 90.9433 29.2486C89.3097 29.2486 87.839 28.8846 86.531 28.1566C85.223 27.4286 84.1843 26.3722 83.4149 24.9872C82.6514 23.5964 82.2696 21.9036 82.2696 19.9091C82.2696 17.9086 82.6514 16.2129 83.4149 14.8221C84.1843 13.4312 85.223 12.3748 86.531 11.6527C87.839 10.9306 89.3097 10.5696 90.9433 10.5696C92.5709 10.5696 94.0387 10.9306 95.3467 11.6527C96.6606 12.3748 97.7023 13.4312 98.4717 14.8221C99.2411 16.2129 99.6258 17.9086 99.6258 19.9091ZM95.1336 19.9091C95.1336 18.7254 94.9649 17.7251 94.6276 16.9084C94.2961 16.0916 93.8167 15.4731 93.1894 15.0529C92.5679 14.6327 91.8192 14.4226 90.9433 14.4226C90.0732 14.4226 89.3245 14.6327 88.6972 15.0529C88.0698 15.4731 87.5874 16.0916 87.2501 16.9084C86.9186 17.7251 86.7529 18.7254 86.7529 19.9091C86.7529 21.0928 86.9186 22.093 87.2501 22.9098C87.5874 23.7266 88.0698 24.3451 88.6972 24.7653C89.3245 25.1855 90.0732 25.3956 90.9433 25.3956C91.8192 25.3956 92.5679 25.1855 93.1894 24.7653C93.8167 24.3451 94.2961 23.7266 94.6276 22.9098C94.9649 22.093 95.1336 21.0928 95.1336 19.9091ZM113.191 10.8182H117.577V22.5458C117.577 23.9012 117.254 25.0819 116.609 26.0881C115.964 27.0883 115.064 27.8636 113.91 28.4141C112.756 28.9586 111.416 29.2308 109.889 29.2308C108.344 29.2308 106.994 28.9586 105.84 28.4141C104.686 27.8636 103.79 27.0883 103.15 26.0881C102.511 25.0819 102.191 23.9012 102.191 22.5458V10.8182H106.586V22.1641C106.586 22.7914 106.722 23.3507 106.994 23.842C107.273 24.3332 107.66 24.7179 108.157 24.9961C108.655 25.2743 109.232 25.4134 109.889 25.4134C110.546 25.4134 111.12 25.2743 111.611 24.9961C112.108 24.7179 112.496 24.3332 112.774 23.842C113.052 23.3507 113.191 22.7914 113.191 22.1641V10.8182ZM120.331 29V10.8182H127.842C129.203 10.8182 130.378 11.0638 131.366 11.555C132.361 12.0404 133.127 12.7388 133.666 13.6502C134.204 14.5558 134.474 15.63 134.474 16.8729C134.474 18.1335 134.198 19.2048 133.648 20.0866C133.097 20.9626 132.316 21.6314 131.304 22.093C130.292 22.5488 129.094 22.7766 127.709 22.7766H122.959V19.3143H126.892C127.555 19.3143 128.108 19.2285 128.552 19.0568C129.002 18.8793 129.342 18.6129 129.573 18.2578C129.804 17.8968 129.919 17.4351 129.919 16.8729C129.919 16.3106 129.804 15.846 129.573 15.479C129.342 15.1062 129.002 14.828 128.552 14.6445C128.102 14.4551 127.549 14.3604 126.892 14.3604H124.726V29H120.331ZM130.567 20.6903L135.095 29H130.301L125.862 20.6903H130.567ZM154.187 16.7575C154.086 16.3846 153.938 16.0561 153.743 15.772C153.548 15.482 153.308 15.2364 153.024 15.0352C152.74 14.8339 152.414 14.683 152.047 14.5824C151.68 14.4759 151.278 14.4226 150.84 14.4226C149.958 14.4226 149.194 14.6357 148.549 15.0618C147.91 15.4879 147.416 16.1094 147.067 16.9261C146.718 17.737 146.543 18.7224 146.543 19.8825C146.543 21.0484 146.712 22.0427 147.049 22.8654C147.386 23.6881 147.875 24.3155 148.514 24.7475C149.153 25.1796 149.928 25.3956 150.84 25.3956C151.645 25.3956 152.325 25.2654 152.882 25.005C153.444 24.7386 153.87 24.3628 154.16 23.8775C154.45 23.3922 154.595 22.821 154.595 22.1641L155.412 22.2617H150.991V19.0568H158.83V21.4627C158.83 23.0903 158.484 24.4841 157.791 25.6442C157.105 26.8042 156.158 27.695 154.95 28.3164C153.749 28.9379 152.367 29.2486 150.804 29.2486C149.07 29.2486 147.546 28.8728 146.232 28.1211C144.918 27.3694 143.894 26.2982 143.161 24.9073C142.427 23.5105 142.06 21.8533 142.06 19.9357C142.06 18.4442 142.282 17.1214 142.725 15.9673C143.169 14.8073 143.788 13.8248 144.581 13.0199C145.38 12.215 146.303 11.6054 147.351 11.1911C148.404 10.7768 149.538 10.5696 150.751 10.5696C151.805 10.5696 152.784 10.7205 153.69 11.0224C154.601 11.3242 155.406 11.7504 156.104 12.3008C156.809 12.8512 157.38 13.5052 157.818 14.2628C158.256 15.0204 158.528 15.8519 158.635 16.7575H154.187ZM172.42 10.8182H176.805V22.5458C176.805 23.9012 176.483 25.0819 175.838 26.0881C175.193 27.0883 174.293 27.8636 173.139 28.4141C171.985 28.9586 170.644 29.2308 169.117 29.2308C167.572 29.2308 166.223 28.9586 165.069 28.4141C163.915 27.8636 163.018 27.0883 162.379 26.0881C161.74 25.0819 161.42 23.9012 161.42 22.5458V10.8182H165.815V22.1641C165.815 22.7914 165.951 23.3507 166.223 23.842C166.501 24.3332 166.889 24.7179 167.386 24.9961C167.883 25.2743 168.46 25.4134 169.117 25.4134C169.774 25.4134 170.348 25.2743 170.839 24.9961C171.337 24.7179 171.724 24.3332 172.002 23.842C172.281 23.3507 172.42 22.7914 172.42 22.1641V10.8182ZM183.954 10.8182V29H179.56V10.8182H183.954ZM193.434 29H186.713V10.8182H193.425C195.277 10.8182 196.872 11.1822 198.21 11.9102C199.553 12.6322 200.589 13.6739 201.317 15.0352C202.045 16.3905 202.409 18.0122 202.409 19.9002C202.409 21.7942 202.045 23.4218 201.317 24.783C200.595 26.1443 199.562 27.1889 198.219 27.9169C196.875 28.639 195.28 29 193.434 29ZM191.108 25.2536H193.265C194.283 25.2536 195.144 25.0819 195.848 24.7386C196.559 24.3894 197.094 23.8242 197.455 23.043C197.822 22.2558 198.006 21.2082 198.006 19.9002C198.006 18.5922 197.822 17.5505 197.455 16.7752C197.088 15.994 196.547 15.4317 195.831 15.0884C195.12 14.7392 194.244 14.5646 193.203 14.5646H191.108V25.2536ZM204.975 29V10.8182H217.652V14.3871H209.369V18.1158H217.004V21.6935H209.369V25.4311H217.652V29H204.975Z" fill="#0094FF"/>
<g clip-path="url(#clip0_6001_13665)">
<path d="M37.5955 24.8809C37.4398 24.7263 37.2785 24.5884 37.1173 24.4504C36.0439 23.5176 35.0039 22.8112 34.3643 22.0385C34.2642 21.9225 34.1697 21.7956 34.0696 21.6576C32.2398 19.1188 30.4824 13.5884 35.0095 8.88051C34.7703 10.3431 34.787 13.1469 36.7502 17.4575C36.7502 17.9156 36.7891 18.3957 36.8447 18.909C37.1284 21.5638 37.3842 23.49 37.59 24.8754L37.5955 24.8809Z" fill="#EE731B"/>
<path d="M43.0736 8.80324C41.0325 9.20614 36.6279 10.8454 36.7502 17.4575C34.787 13.1524 34.7703 10.3431 35.0095 8.88051C35.2264 8.64318 35.4544 8.42241 35.7047 8.20164C36.1829 7.77113 36.6612 7.40686 37.1395 7.09778L43.0736 8.80324Z" fill="#7B1714"/>
<path d="M41.8834 18.0259L42.84 23.7936L36.7558 17.4575C36.6334 10.8454 41.0325 9.21166 43.0792 8.80324C37.1339 12.5674 41.8612 17.9983 41.8612 17.9983L41.8834 18.0204V18.0259Z" fill="#E73E20"/>
<path d="M44.742 21.2547C43.9467 24.5994 42.84 29.1031 42.84 29.1031V23.7936L41.8834 18.0259C43.0792 19.1408 44.019 20.2226 44.742 21.2547Z" fill="url(#paint0_linear_6001_13665)"/>
<path d="M40.8379 36.1292C40.8768 35.8587 40.9158 35.5938 40.9436 35.3344C40.9602 35.2185 40.9658 35.1136 40.9769 35.0032C40.9825 34.937 40.9936 34.8652 40.9992 34.799C41.0159 34.6555 41.0214 34.5065 41.0325 34.363L42.8345 29.0976C42.8345 29.0976 43.9468 24.5939 44.7365 21.2547C51.1489 30.3726 40.8379 36.1292 40.8379 36.1292Z" fill="url(#paint1_linear_6001_13665)"/>
<path d="M47 7.09778C45.3483 7.59452 44.0691 8.17404 43.0847 8.80324H43.0792L37.1451 7.09778C38.3464 6.30853 39.5365 5.89458 40.6432 5.72348H40.6488C41.9335 5.51927 43.1181 5.64069 44.1025 5.86698C45.8655 6.29749 47 7.09778 47 7.09778Z" fill="#110F22"/>
<path d="M44.1025 5.86699C43.1181 5.63518 41.9391 5.51375 40.6488 5.72349H40.6432C40.5598 5.68485 39.9425 5.4696 38.0627 6.05464C37.0505 5.65726 33.2743 4.16705 31.2499 3.12391C32.3455 3.22878 33.6247 3.24533 35.1207 3.12391C42.5898 2.51127 44.108 5.87251 44.108 5.87251L44.1025 5.86699Z" fill="#F9B218"/>
<path d="M38.0571 6.04912C37.1951 6.30853 36.0661 6.74455 34.6035 7.43446C29.676 9.75255 25.6439 1.64474 25.5216 0.921719C25.5216 0.921719 26.8786 2.70996 31.2332 3.11839H31.2388C33.2687 4.16153 37.045 5.65173 38.0516 6.04912H38.0571Z" fill="#E73E20"/>
<path d="M34.7981 28.2532L31.9395 32.5527L16.0115 43.0558C16.0671 42.9179 16.1171 42.7744 16.1783 42.6364C16.2339 42.4984 16.2951 42.3549 16.3618 42.2059C16.4842 41.9465 16.6177 41.676 16.7623 41.4111C16.8012 41.3283 16.8457 41.2455 16.8957 41.1572C17.0348 40.9199 17.1794 40.677 17.3295 40.4287C17.4296 40.2741 17.5242 40.1251 17.6299 39.9706C17.73 39.816 17.8356 39.656 17.9469 39.5014C17.9469 39.5014 19.9379 37.0012 23.931 34.0925C24.971 33.3254 26.1612 32.5306 27.4792 31.7579C28.4191 31.2004 29.4313 30.643 30.5102 30.1131C30.7883 29.9752 31.0664 29.8372 31.35 29.7102C31.4112 29.6771 31.4668 29.6495 31.528 29.6275C31.9507 29.4288 32.3844 29.2301 32.8294 29.0479C33.2743 28.8492 33.7303 28.6671 34.1919 28.4905C34.3254 28.4298 34.4644 28.3856 34.5924 28.3304C34.6591 28.2973 34.7314 28.2752 34.7981 28.2532Z" fill="url(#paint2_linear_6001_13665)"/>
<path d="M31.9395 32.5527L29.9096 37.2937C28.4136 38.1326 26.8285 39.1592 25.3826 40.3624L15.2662 47.0463C15.244 46.4723 15.2885 45.8762 15.3886 45.2635C15.3942 45.247 15.3942 45.2415 15.3942 45.2415C15.4275 45.0483 15.4609 44.8717 15.4998 44.684C15.5054 44.6675 15.5054 44.6454 15.5165 44.6288C15.5554 44.4357 15.6111 44.248 15.6722 44.0493C15.7056 43.9279 15.739 43.8065 15.7779 43.6795C15.7946 43.6354 15.8113 43.5967 15.8224 43.5471C15.828 43.5305 15.8391 43.5084 15.8391 43.4919C15.8836 43.3484 15.9392 43.1993 16.0004 43.0503L31.9284 32.5471L31.9395 32.5527Z" fill="url(#paint3_linear_6001_13665)"/>
<path d="M25.3826 40.3624C22.6908 42.6033 20.4773 45.4733 20.1158 48.9835L17.9191 53.6639C16.5009 51.9639 15.3163 49.7452 15.2662 47.0463L25.3826 40.3624Z" fill="url(#paint4_linear_6001_13665)"/>
<path d="M22.7798 57.6212C22.6185 57.5439 20.0269 56.1696 17.9246 53.6639L20.1214 48.9891C19.8489 51.5279 20.5663 54.4035 22.7798 57.6212Z" fill="#50C0DA"/>
<path d="M14.4932 41.6098C12.3131 45.9314 11.896 51.9198 11.8404 55.0216C10.2164 53.2389 8.92616 50.9153 8.7037 47.9625L14.4932 41.6153V41.6098Z" fill="#7B1714"/>
<path d="M22.9744 34.2195L17.7188 38.0664L14.4988 41.6098L8.70926 47.957C8.58691 46.2515 8.81493 44.3363 9.54904 42.1948C9.54904 42.1948 11.5901 35.809 22.98 34.214L22.9744 34.2195Z" fill="#EE731B"/>
<path d="M19.6098 60C19.3372 59.9172 14.9715 58.4712 11.8404 55.0216C11.896 51.9253 12.3131 45.9314 14.4932 41.6098L17.7133 38.0664L22.9689 34.2195C23.2748 34.1753 23.6029 34.1367 23.9255 34.0981C19.9323 37.0067 17.9413 39.5069 17.9413 39.5069C17.8356 39.6615 17.7244 39.8215 17.6243 39.9761C17.5186 40.1306 17.4241 40.2796 17.324 40.4342C17.1794 40.677 17.0292 40.9254 16.8902 41.1627C16.8457 41.2455 16.7956 41.3283 16.7567 41.4166C16.6121 41.6871 16.4786 41.952 16.3563 42.2114C16.2896 42.3549 16.2228 42.5039 16.1728 42.6419C16.1116 42.7799 16.056 42.9234 16.0059 43.0613C15.9447 43.2159 15.8891 43.3594 15.8446 43.5029C15.8446 43.5195 15.8391 43.5415 15.828 43.5581C15.8113 43.6022 15.7946 43.6409 15.7835 43.6905C15.7445 43.812 15.7056 43.9334 15.6778 44.0603C15.6166 44.259 15.561 44.4522 15.5221 44.6399C15.5165 44.6564 15.5165 44.6785 15.5054 44.6951C15.4665 44.8882 15.4275 45.0648 15.3997 45.2525C15.3997 45.2525 15.3997 45.258 15.3942 45.2746C15.1939 45.7658 11.9961 54.0502 19.6098 60.011V60Z" fill="#E73E20"/>
<path d="M34.7981 28.2532C34.7314 28.2752 34.6591 28.2973 34.5924 28.3304L25.6495 22.9547L25.1879 22.7615L6.33452 15.1118L1.52384 13.1635L0 7.1585L16.7345 16.2487L21.9011 19.058L23.2525 19.7921L24.1868 20.2944L27.3458 22.6676L34.7981 28.2532Z" fill="url(#paint5_linear_6001_13665)"/>
<path d="M34.1864 28.4905C33.7248 28.6671 33.2687 28.8492 32.8238 29.0479C32.3789 29.2301 31.9451 29.4288 31.5224 29.6274C31.4612 29.6495 31.4056 29.6826 31.3445 29.7102C31.0608 29.8427 30.7827 29.9807 30.5047 30.1131L29.9596 29.9917L24.4872 24.627L28.1244 26.073L34.1919 28.485L34.1864 28.4905Z" fill="#7B1714"/>
<path d="M24.3759 28.7168L21.445 28.0434L11.7403 24.4062L4.05988 16.5247L7.44681 17.8714L17.4964 21.8618L24.3759 28.7168Z" fill="#F9B218"/>
<path d="M11.7403 24.4062L3.49817 21.3154L2.0355 15.7189L4.05988 16.5247L11.7403 24.4062Z" fill="#EE731B"/>
<path d="M34.5868 28.3304C34.4533 28.3856 34.3143 28.4298 34.1864 28.4905L28.1188 26.0786L24.4816 24.6325L17.4964 21.8618L7.44681 17.8659L6.33452 15.1062L25.1823 22.756L25.6439 22.9491L34.5868 28.3249V28.3304Z" fill="url(#paint6_linear_6001_13665)"/>
<path d="M16.6066 30.4498L10.3777 29.6882L5.92297 25.052L11.6847 26.1613H11.6958L16.6066 30.4498Z" fill="#F9B218"/>
<path d="M23.5751 31.2887L16.6066 30.4498L11.6958 26.1613L18.7477 27.5246L23.5751 31.2887Z" fill="#E73E20"/>
<path d="M30.5047 30.1187C29.4257 30.6485 28.4136 31.206 27.4737 31.7634L23.5751 31.2887L18.7477 27.5246L21.445 28.0434L24.3759 28.7168L29.9596 29.9917L30.5047 30.1131V30.1187Z" fill="#7B1714"/>
<path d="M23.247 19.7921L21.9011 19.058L16.7345 16.2487L9.05964 8.16852V0L13.8314 6.65624L23.247 19.7921Z" fill="url(#paint7_linear_6001_13665)"/>
<path d="M41.077 33.3419C41.077 33.5185 41.0715 33.6841 41.0603 33.8718C41.0548 34.0318 41.0437 34.2029 41.027 34.3685C41.0103 34.5727 40.9936 34.788 40.9714 35.0087C40.9658 35.1136 40.9547 35.224 40.938 35.3399C40.9046 35.5993 40.8713 35.8697 40.8323 36.1347L31.9284 42.1948C32.0897 41.9906 34.6813 38.6735 36.3275 34.4292C36.8225 33.1598 37.2285 31.8076 37.4621 30.4222C37.64 29.3901 37.7179 28.3359 37.6567 27.2873C37.6011 26.3324 37.4343 25.3831 37.1117 24.4559C37.273 24.5939 37.4343 24.7319 37.59 24.8864C37.7346 25.0244 37.8847 25.1624 38.0293 25.3169C38.1294 25.4107 38.224 25.5101 38.313 25.6149L38.3297 25.6315C38.363 25.6646 38.3853 25.6922 38.4131 25.7253C38.5076 25.8247 38.5966 25.9295 38.6856 26.0454C38.7635 26.1227 38.8246 26.2 38.8858 26.2828C39.0248 26.4594 39.1583 26.636 39.2862 26.8237C39.5476 27.2045 39.7923 27.6184 40.0092 28.071C40.2817 28.6229 40.5042 29.2245 40.6822 29.8979C40.7433 30.1352 40.799 30.3781 40.8434 30.632C40.8824 30.8307 40.9213 31.0349 40.9491 31.2501C40.9547 31.3108 40.9658 31.3826 40.9714 31.4543C40.9936 31.6475 41.0103 31.8352 41.0325 32.0449C41.0325 32.1277 41.0381 32.2215 41.0492 32.3153C41.0659 32.6465 41.0715 32.9887 41.0715 33.3474L41.077 33.3419Z" fill="url(#paint8_linear_6001_13665)"/>
<path d="M37.1173 24.4504L36.3776 27.6957L34.7648 35.0087C33.569 35.4779 31.8061 36.2395 29.9096 37.2937L31.9395 32.5527L34.7981 28.2532L30.5658 19.4334L34.0751 21.6576C34.1752 21.7956 34.2698 21.9281 34.3699 22.0385C35.0095 22.8112 36.0495 23.5176 37.1228 24.4504H37.1173Z" fill="#110F22"/>
<path d="M34.7981 28.2531L27.3402 22.6676L24.1813 20.2944L23.247 19.7921L13.8314 6.65624L30.1487 19.1629L30.5547 19.4223L30.5658 19.4334L34.7981 28.2531Z" fill="url(#paint9_linear_6001_13665)"/>
<path d="M37.4732 30.4167C37.2396 31.802 36.8336 33.1543 36.3387 34.4237C36.3387 34.4237 35.738 34.6169 34.7648 35.0032L36.3776 27.6902L37.1173 24.4449C37.4398 25.3721 37.6122 26.3214 37.6623 27.2762C37.7235 28.3249 37.6456 29.3791 37.4676 30.4112L37.4732 30.4167Z" fill="#07101A"/>
<path d="M42.8344 23.7936V29.1031L41.0325 34.3685C41.0492 34.2029 41.0548 34.0318 41.0659 33.8718C41.0715 33.6896 41.0826 33.5185 41.0826 33.3419C41.0826 32.9832 41.077 32.6355 41.0603 32.3098C41.0548 32.216 41.0437 32.1277 41.0437 32.0394C41.0214 31.8352 41.0047 31.642 40.9825 31.4488C40.9769 31.3715 40.9658 31.3053 40.9602 31.2446C40.9269 31.0293 40.8935 30.8251 40.8546 30.6264C40.8101 30.3726 40.7545 30.1297 40.6933 29.8924C40.5153 29.219 40.2929 28.6174 40.0203 28.0655C39.8034 27.6129 39.5587 27.199 39.2974 26.8181C39.1639 26.625 39.036 26.4483 38.8969 26.2773C38.8358 26.1945 38.7746 26.1172 38.6967 26.0399C38.6522 25.9627 38.5799 25.8854 38.5187 25.8192C38.4854 25.7805 38.4576 25.7529 38.4242 25.7198C38.3908 25.6867 38.3686 25.6591 38.3408 25.626L38.3241 25.6094C38.2407 25.5101 38.1406 25.4052 38.0405 25.3114C37.8959 25.1568 37.7457 25.0189 37.6011 24.8809C37.3953 23.4955 37.1395 21.5693 36.8559 18.9145C36.8003 18.4013 36.7613 17.9211 36.7613 17.463L42.8456 23.7991L42.8344 23.7936Z" fill="#F9B218"/>
<path d="M29.9541 29.9972L24.3759 28.7168L17.4964 21.8618L24.4816 24.6325L29.9541 29.9972Z" fill="#E73E20"/>
</g>
<defs>
<linearGradient id="paint0_linear_6001_13665" x1="43.4573" y1="18.335" x2="42.5808" y2="26.1684" gradientUnits="userSpaceOnUse">
<stop stop-color="#50C0DA"/>
<stop offset="1" stop-color="#1B499A"/>
</linearGradient>
<linearGradient id="paint1_linear_6001_13665" x1="47.1502" y1="21.1498" x2="41.8718" y2="35.956" gradientUnits="userSpaceOnUse">
<stop stop-color="#50C0DA"/>
<stop offset="0.49" stop-color="#1B499A"/>
<stop offset="1" stop-color="#110F22"/>
</linearGradient>
<linearGradient id="paint2_linear_6001_13665" x1="13.0861" y1="41.7533" x2="33.6425" y2="31.1451" gradientUnits="userSpaceOnUse">
<stop stop-color="#1B499A"/>
<stop offset="1" stop-color="#110F22"/>
</linearGradient>
<linearGradient id="paint3_linear_6001_13665" x1="14.5433" y1="53.5369" x2="28.3942" y2="31.2105" gradientUnits="userSpaceOnUse">
<stop offset="0.23" stop-color="#50C0DA"/>
<stop offset="0.49" stop-color="#1B499A"/>
<stop offset="0.89" stop-color="#110F22"/>
</linearGradient>
<linearGradient id="paint4_linear_6001_13665" x1="18.9313" y1="59.277" x2="20.5582" y2="40.8294" gradientUnits="userSpaceOnUse">
<stop stop-color="#50C0DA"/>
<stop offset="1" stop-color="#1B499A"/>
</linearGradient>
<linearGradient id="paint5_linear_6001_13665" x1="-0.072299" y1="9.71944" x2="29.2374" y2="25.4414" gradientUnits="userSpaceOnUse">
<stop stop-color="#50C0DA"/>
<stop offset="0.49" stop-color="#1B499A"/>
<stop offset="1" stop-color="#110F22"/>
</linearGradient>
<linearGradient id="paint6_linear_6001_13665" x1="5.49474" y1="15.7189" x2="32.8034" y2="27.4929" gradientUnits="userSpaceOnUse">
<stop stop-color="#50C0DA"/>
<stop offset="0.49" stop-color="#1B499A"/>
<stop offset="1" stop-color="#110F22"/>
</linearGradient>
<linearGradient id="paint7_linear_6001_13665" x1="9.08188" y1="4.11186" x2="24.6127" y2="21.2897" gradientUnits="userSpaceOnUse">
<stop stop-color="#50C0DA"/>
<stop offset="0.49" stop-color="#1B499A"/>
<stop offset="1" stop-color="#110F22"/>
</linearGradient>
<linearGradient id="paint8_linear_6001_13665" x1="32.6013" y1="44.5626" x2="38.5097" y2="31.134" gradientUnits="userSpaceOnUse">
<stop stop-color="#50C0DA"/>
<stop offset="0.49" stop-color="#1B499A"/>
<stop offset="1" stop-color="#110F22"/>
</linearGradient>
<linearGradient id="paint9_linear_6001_13665" x1="19.5875" y1="9.0792" x2="27.6483" y2="21.5207" gradientUnits="userSpaceOnUse">
<stop stop-color="#50C0DA"/>
<stop offset="0.49" stop-color="#1B499A"/>
<stop offset="1" stop-color="#110F22"/>
</linearGradient>
<clipPath id="clip0_6001_13665">
<rect width="47" height="60" fill="white"/>
</clipPath>
</defs>
</svg>
