<svg width="50" height="50" viewBox="0 0 50 50" fill="none" xmlns="http://www.w3.org/2000/svg">
<g clip-path="url(#clip0_2088_3797)">
<path d="M25 50C38.8071 50 50 38.8071 50 25C50 11.1929 38.8071 0 25 0C11.1929 0 0 11.1929 0 25C0 38.8071 11.1929 50 25 50Z" fill="#27D045"/>
<path d="M25.2083 36.8752C31.8818 36.8752 37.2917 31.4653 37.2917 24.7918C37.2917 18.1184 31.8818 12.7085 25.2083 12.7085C18.5349 12.7085 13.125 18.1184 13.125 24.7918C13.125 31.4653 18.5349 36.8752 25.2083 36.8752Z" stroke="white" stroke-width="2.91667"/>
<path d="M14.1667 31.6668L12.25 38.4584L19.2917 36.5001L19.6666 34.3334L15.0833 35.7917L16.2916 31.4167L14.1667 31.6668Z" fill="white"/>
<path d="M15 35.8335C15 35.7918 16.4583 30.9585 16.4583 30.9585L19.9583 34.2502L15 35.8335Z" fill="#27D045"/>
<path d="M19.9856 18.8054C19.5602 19.1006 19.1975 19.4772 18.9185 19.9135C18.6396 20.3498 18.45 20.837 18.3606 21.3471C18.1523 22.9721 19.1523 24.6387 19.1523 24.6387C20.1666 26.1479 21.371 27.5203 22.7356 28.7221C23.9293 29.6667 25.2846 30.3867 26.7356 30.8471C27.582 31.185 28.5078 31.2718 29.4023 31.0971C30.195 30.8795 30.8964 30.4118 31.4022 29.7637C31.5208 29.4689 31.6047 29.1613 31.6523 28.8471C31.6999 28.5713 31.6999 28.2895 31.6523 28.0137C31.6106 27.7221 28.6106 26.3471 28.3189 26.4304C28.0273 26.5137 27.7772 27.0554 27.4439 27.5137C27.1106 27.9721 26.9856 28.1804 26.6523 28.1804C26.3189 28.1804 24.8606 27.5971 23.4856 26.3471C22.7002 25.6661 22.0864 24.8096 21.6939 23.8471C21.6939 23.8471 21.9439 23.5554 22.2773 23.0971C22.5366 22.8129 22.7226 22.4696 22.8189 22.0971C22.8189 21.8887 21.6522 18.9304 21.3606 18.8054C20.9045 18.7413 20.4417 18.7413 19.9856 18.8054Z" fill="white"/>
</g>
<defs>
<clipPath id="clip0_2088_3797">
<rect width="50" height="50" fill="white"/>
</clipPath>
</defs>
</svg>
