<svg width="89" height="20" viewBox="0 0 89 20" fill="none" xmlns="http://www.w3.org/2000/svg">
<g clip-path="url(#clip0_6001_9827)">
<path d="M17.0147 0.695312C11.7794 0.695312 7.67847 4.86923 7.67847 9.99966C7.67847 15.1301 11.8667 19.304 17.0147 19.304C22.1628 19.304 26.351 15.1301 26.351 9.99966C26.351 4.86923 22.0755 0.695312 17.0147 0.695312ZM17.0147 13.4779C15.0951 13.4779 13.5245 11.9127 13.5245 9.99966C13.5245 8.08662 15.0951 6.5214 17.0147 6.5214C18.9343 6.5214 20.5049 8.08662 20.5049 9.99966C20.5049 11.9127 18.9343 13.4779 17.0147 13.4779Z" fill="#7B42F9"/>
<path d="M7.59118 3.39062V16.8689H4.27549L0 3.39062H7.59118Z" fill="#7B42F9"/>
<path d="M86.4696 5.82617L84.3755 10.8697C84.2882 10.9566 84.2882 11.0436 84.2882 11.1305L84.201 11.2175L84.1137 11.1305C84.1137 11.0436 84.0265 10.9566 84.0265 10.8697L81.9323 5.82617H79.3147L82.8049 14.4349L81.3216 17.7392H83.9392L89 5.82617H86.4696Z" fill="black"/>
<path d="M66.8372 6.26041C66.401 5.91258 65.7902 5.65172 65.0921 5.65172C63.8706 5.56476 62.8235 5.91258 62.0382 6.69519V5.73867H59.5951V14.3474H61.951V9.82563C61.951 8.86911 62.1255 8.52128 62.3 8.26041C62.5618 7.82563 63.0853 7.56476 63.7833 7.56476C64.3941 7.56476 65.0049 7.82563 65.3539 8.34737C65.5284 8.69519 65.6157 9.12998 65.6157 9.39085C65.6157 10.1735 65.6157 14.3474 65.6157 14.3474H68.0588V9.12998C67.9716 7.82563 67.6225 6.86911 66.8372 6.26041Z" fill="black"/>
<path d="M54.9706 5.91315C53.749 5.47836 52.5275 5.56532 51.3059 6.08706C50.5206 6.43489 49.8226 7.04358 49.3863 7.82619C48.95 8.43489 48.7755 9.30445 48.7755 10.174C48.7755 11.0436 48.95 11.9131 49.3863 12.5218C49.8226 13.1305 50.3461 13.7392 51.0441 14.0871C51.7422 14.4349 52.6147 14.6958 53.3128 14.6958C53.749 14.6958 54.0981 14.6088 54.5343 14.5218C54.8834 14.4349 55.2324 14.261 55.5814 14.0871C56.2794 13.6523 56.8902 13.1305 57.2392 12.5218C57.6755 11.9131 57.85 11.0436 57.85 10.174C57.9373 8.17402 56.803 6.52184 54.9706 5.91315ZM55.6687 10.261C55.5814 11.0436 55.4069 11.6523 54.8834 12.0871C54.5343 12.3479 54.0108 12.5218 53.3128 12.6088C52.702 12.6088 52.1785 12.4349 51.7422 12.0871C51.3059 11.6523 51.0441 11.0436 50.9569 10.261C50.8696 9.39141 51.2186 8.69576 51.9167 8.17402C52.2657 7.91315 52.702 7.73923 53.2255 7.73923C53.749 7.73923 54.1853 7.91315 54.6216 8.17402C55.3196 8.6088 55.6687 9.39141 55.6687 10.261Z" fill="black"/>
<path d="M45.9833 6.26006C45.547 5.91224 44.9362 5.65137 44.2382 5.65137C44.1509 5.65137 43.9764 5.65137 43.8019 5.65137C42.8421 5.65137 42.0568 6.08615 41.3588 6.86876L41.2715 7.04267H41.0098C40.8352 6.7818 40.5735 6.52093 40.399 6.34702C39.9627 5.99919 39.3519 5.73832 38.6539 5.73832C37.5196 5.65137 36.647 5.99919 35.8617 6.7818V5.91224H33.4186V14.5209H35.7745V9.99919V9.91224C35.7745 8.95571 35.8617 8.69485 36.0362 8.43398C36.298 7.99919 36.8215 7.65137 37.4323 7.73832C38.0431 7.73832 38.5666 7.99919 38.8284 8.52093C39.0901 8.86876 39.0901 9.30354 39.0901 9.73832V14.5209H41.5333V9.91224C41.5333 9.04267 41.6205 8.69485 41.7951 8.43398C42.0568 7.99919 42.5803 7.73832 43.1911 7.73832C43.8019 7.73832 44.2382 7.99919 44.5872 8.52093C44.7617 8.7818 44.849 9.12963 44.849 9.3905C44.849 9.47745 44.849 9.65137 44.849 9.65137V14.434H47.2921V9.12963C47.2921 8.69485 47.2049 8.17311 47.1176 7.73832C46.8558 7.21658 46.5068 6.69485 45.9833 6.26006Z" fill="black"/>
<path d="M77.1333 11.8259C76.7843 12.1737 75.9117 12.7824 74.7774 12.8693C73.8176 12.9563 73.1196 12.6085 72.5961 12.0867C72.3343 11.8259 72.1598 11.478 72.0725 11.1302H78.7912V11.0433C78.8784 10.6954 78.8784 10.4346 78.8784 10.0867C78.8784 9.82586 78.7912 9.39108 78.7039 8.86934C78.4421 7.91282 77.8314 7.13021 77.0461 6.52152C76.1735 5.91282 75.301 5.73891 75.1265 5.73891C73.3814 5.47804 71.4617 6.17369 70.4147 7.82586C69.7166 8.9563 69.8039 10.0867 69.8039 10.4346C69.8039 10.8693 69.8912 12.1737 70.9382 13.3041C72.1598 14.6954 73.9049 14.6954 74.4284 14.7824C76.7843 14.8693 78.3549 13.3911 78.7039 13.0433L77.1333 11.8259ZM72.9451 8.17369C73.2941 7.91282 73.7304 7.73891 74.2539 7.73891C74.7774 7.73891 75.2137 7.91282 75.65 8.17369C75.999 8.43456 76.2608 8.78239 76.4353 9.21717H72.1598C72.247 8.78239 72.5961 8.43456 72.9451 8.17369Z" fill="black"/>
</g>
<defs>
<clipPath id="clip0_6001_9827">
<rect width="89" height="20" fill="white"/>
</clipPath>
</defs>
</svg>
