<svg width="47" height="60" viewBox="0 0 47 60" fill="none" xmlns="http://www.w3.org/2000/svg">
<g clip-path="url(#clip0_6051_13668)">
<path d="M37.5955 24.8809C37.4398 24.7263 37.2785 24.5884 37.1173 24.4504C36.0439 23.5176 35.0039 22.8112 34.3643 22.0385C34.2642 21.9225 34.1697 21.7956 34.0696 21.6576C32.2398 19.1188 30.4824 13.5884 35.0095 8.88051C34.7703 10.3431 34.787 13.1469 36.7502 17.4575C36.7502 17.9156 36.7891 18.3957 36.8447 18.909C37.1284 21.5638 37.3842 23.49 37.59 24.8754L37.5955 24.8809Z" fill="#EE731B"/>
<path d="M43.0736 8.80324C41.0325 9.20614 36.6279 10.8454 36.7502 17.4575C34.787 13.1524 34.7703 10.3431 35.0095 8.88051C35.2264 8.64318 35.4544 8.42241 35.7047 8.20164C36.1829 7.77113 36.6612 7.40686 37.1395 7.09778L43.0736 8.80324Z" fill="#7B1714"/>
<path d="M41.8834 18.0259L42.84 23.7936L36.7558 17.4575C36.6334 10.8454 41.0325 9.21166 43.0792 8.80324C37.1339 12.5674 41.8612 17.9983 41.8612 17.9983L41.8834 18.0204V18.0259Z" fill="#E73E20"/>
<path d="M44.742 21.2547C43.9467 24.5994 42.84 29.1031 42.84 29.1031V23.7936L41.8834 18.0259C43.0792 19.1408 44.019 20.2226 44.742 21.2547Z" fill="url(#paint0_linear_6051_13668)"/>
<path d="M40.8379 36.1292C40.8768 35.8587 40.9158 35.5938 40.9436 35.3344C40.9602 35.2185 40.9658 35.1136 40.9769 35.0032C40.9825 34.937 40.9936 34.8652 40.9992 34.799C41.0159 34.6555 41.0214 34.5065 41.0325 34.363L42.8345 29.0976C42.8345 29.0976 43.9468 24.5939 44.7365 21.2547C51.1489 30.3726 40.8379 36.1292 40.8379 36.1292Z" fill="url(#paint1_linear_6051_13668)"/>
<path d="M47 7.09778C45.3483 7.59452 44.0691 8.17404 43.0847 8.80324H43.0792L37.1451 7.09778C38.3464 6.30853 39.5365 5.89458 40.6432 5.72348H40.6488C41.9335 5.51927 43.1181 5.64069 44.1025 5.86698C45.8655 6.29749 47 7.09778 47 7.09778Z" fill="#110F22"/>
<path d="M44.1025 5.86699C43.1181 5.63518 41.9391 5.51375 40.6488 5.72349H40.6432C40.5598 5.68485 39.9425 5.4696 38.0627 6.05464C37.0505 5.65726 33.2743 4.16705 31.2499 3.12391C32.3455 3.22878 33.6247 3.24533 35.1207 3.12391C42.5898 2.51127 44.108 5.87251 44.108 5.87251L44.1025 5.86699Z" fill="#F9B218"/>
<path d="M38.0571 6.04912C37.1951 6.30853 36.0661 6.74455 34.6035 7.43446C29.676 9.75255 25.6439 1.64474 25.5216 0.921719C25.5216 0.921719 26.8786 2.70996 31.2332 3.11839H31.2388C33.2687 4.16153 37.045 5.65173 38.0516 6.04912H38.0571Z" fill="#E73E20"/>
<path d="M34.7981 28.2532L31.9395 32.5527L16.0115 43.0558C16.0671 42.9179 16.1171 42.7744 16.1783 42.6364C16.2339 42.4984 16.2951 42.3549 16.3618 42.2059C16.4842 41.9465 16.6177 41.676 16.7623 41.4111C16.8012 41.3283 16.8457 41.2455 16.8957 41.1572C17.0348 40.9199 17.1794 40.677 17.3295 40.4287C17.4296 40.2741 17.5242 40.1251 17.6299 39.9706C17.73 39.816 17.8356 39.656 17.9469 39.5014C17.9469 39.5014 19.9379 37.0012 23.931 34.0925C24.971 33.3254 26.1612 32.5306 27.4792 31.7579C28.4191 31.2004 29.4313 30.643 30.5102 30.1131C30.7883 29.9752 31.0664 29.8372 31.35 29.7102C31.4112 29.6771 31.4668 29.6495 31.528 29.6275C31.9507 29.4288 32.3844 29.2301 32.8294 29.0479C33.2743 28.8492 33.7303 28.6671 34.1919 28.4905C34.3254 28.4298 34.4644 28.3856 34.5924 28.3304C34.6591 28.2973 34.7314 28.2752 34.7981 28.2532Z" fill="url(#paint2_linear_6051_13668)"/>
<path d="M31.9395 32.5527L29.9096 37.2937C28.4136 38.1326 26.8285 39.1592 25.3826 40.3624L15.2662 47.0463C15.244 46.4723 15.2885 45.8762 15.3886 45.2635C15.3942 45.247 15.3942 45.2415 15.3942 45.2415C15.4275 45.0483 15.4609 44.8717 15.4998 44.684C15.5054 44.6675 15.5054 44.6454 15.5165 44.6288C15.5554 44.4357 15.6111 44.248 15.6722 44.0493C15.7056 43.9279 15.739 43.8065 15.7779 43.6795C15.7946 43.6354 15.8113 43.5967 15.8224 43.5471C15.828 43.5305 15.8391 43.5084 15.8391 43.4919C15.8836 43.3484 15.9392 43.1993 16.0004 43.0503L31.9284 32.5471L31.9395 32.5527Z" fill="url(#paint3_linear_6051_13668)"/>
<path d="M25.3826 40.3624C22.6908 42.6033 20.4773 45.4733 20.1158 48.9835L17.9191 53.6639C16.5009 51.9639 15.3163 49.7452 15.2662 47.0463L25.3826 40.3624Z" fill="url(#paint4_linear_6051_13668)"/>
<path d="M22.7798 57.6212C22.6185 57.5439 20.0269 56.1696 17.9246 53.6639L20.1214 48.9891C19.8489 51.5279 20.5663 54.4035 22.7798 57.6212Z" fill="#50C0DA"/>
<path d="M14.4932 41.6098C12.3131 45.9314 11.896 51.9198 11.8404 55.0216C10.2164 53.2389 8.92616 50.9153 8.7037 47.9625L14.4932 41.6153V41.6098Z" fill="#7B1714"/>
<path d="M22.9744 34.2195L17.7188 38.0664L14.4988 41.6098L8.70926 47.957C8.58691 46.2515 8.81493 44.3363 9.54904 42.1948C9.54904 42.1948 11.5901 35.809 22.98 34.214L22.9744 34.2195Z" fill="#EE731B"/>
<path d="M19.6098 60C19.3372 59.9172 14.9715 58.4712 11.8404 55.0216C11.896 51.9253 12.3131 45.9314 14.4932 41.6098L17.7133 38.0664L22.9689 34.2195C23.2748 34.1753 23.6029 34.1367 23.9255 34.0981C19.9323 37.0067 17.9413 39.5069 17.9413 39.5069C17.8356 39.6615 17.7244 39.8215 17.6243 39.9761C17.5186 40.1306 17.4241 40.2796 17.324 40.4342C17.1794 40.677 17.0292 40.9254 16.8902 41.1627C16.8457 41.2455 16.7956 41.3283 16.7567 41.4166C16.6121 41.6871 16.4786 41.952 16.3563 42.2114C16.2896 42.3549 16.2228 42.5039 16.1728 42.6419C16.1116 42.7799 16.056 42.9234 16.0059 43.0613C15.9447 43.2159 15.8891 43.3594 15.8446 43.5029C15.8446 43.5195 15.8391 43.5415 15.828 43.5581C15.8113 43.6022 15.7946 43.6409 15.7835 43.6905C15.7445 43.812 15.7056 43.9334 15.6778 44.0603C15.6166 44.259 15.561 44.4522 15.5221 44.6399C15.5165 44.6564 15.5165 44.6785 15.5054 44.6951C15.4665 44.8882 15.4275 45.0648 15.3997 45.2525C15.3997 45.2525 15.3997 45.258 15.3942 45.2746C15.1939 45.7658 11.9961 54.0502 19.6098 60.011V60Z" fill="#E73E20"/>
<path d="M34.7981 28.2532C34.7314 28.2752 34.6591 28.2973 34.5924 28.3304L25.6495 22.9547L25.1879 22.7615L6.33452 15.1118L1.52384 13.1635L0 7.1585L16.7345 16.2487L21.9011 19.058L23.2525 19.7921L24.1868 20.2944L27.3458 22.6676L34.7981 28.2532Z" fill="url(#paint5_linear_6051_13668)"/>
<path d="M34.1864 28.4905C33.7248 28.6671 33.2687 28.8492 32.8238 29.0479C32.3789 29.2301 31.9451 29.4288 31.5224 29.6274C31.4612 29.6495 31.4056 29.6826 31.3445 29.7102C31.0608 29.8427 30.7827 29.9807 30.5047 30.1131L29.9596 29.9917L24.4872 24.627L28.1244 26.073L34.1919 28.485L34.1864 28.4905Z" fill="#7B1714"/>
<path d="M24.3759 28.7168L21.445 28.0434L11.7403 24.4062L4.05988 16.5247L7.44681 17.8714L17.4964 21.8618L24.3759 28.7168Z" fill="#F9B218"/>
<path d="M11.7403 24.4062L3.49817 21.3154L2.0355 15.7189L4.05988 16.5247L11.7403 24.4062Z" fill="#EE731B"/>
<path d="M34.5868 28.3304C34.4533 28.3856 34.3143 28.4298 34.1864 28.4905L28.1188 26.0786L24.4816 24.6325L17.4964 21.8618L7.44681 17.8659L6.33452 15.1062L25.1823 22.756L25.6439 22.9491L34.5868 28.3249V28.3304Z" fill="url(#paint6_linear_6051_13668)"/>
<path d="M16.6066 30.4498L10.3777 29.6882L5.92297 25.052L11.6847 26.1613H11.6958L16.6066 30.4498Z" fill="#F9B218"/>
<path d="M23.5751 31.2887L16.6066 30.4498L11.6958 26.1613L18.7477 27.5246L23.5751 31.2887Z" fill="#E73E20"/>
<path d="M30.5047 30.1187C29.4257 30.6485 28.4136 31.206 27.4737 31.7634L23.5751 31.2887L18.7477 27.5246L21.445 28.0434L24.3759 28.7168L29.9596 29.9917L30.5047 30.1131V30.1187Z" fill="#7B1714"/>
<path d="M23.247 19.7921L21.9011 19.058L16.7345 16.2487L9.05964 8.16852V0L13.8314 6.65624L23.247 19.7921Z" fill="url(#paint7_linear_6051_13668)"/>
<path d="M41.077 33.3419C41.077 33.5185 41.0715 33.6841 41.0603 33.8718C41.0548 34.0318 41.0437 34.2029 41.027 34.3685C41.0103 34.5727 40.9936 34.788 40.9714 35.0087C40.9658 35.1136 40.9547 35.224 40.938 35.3399C40.9046 35.5993 40.8713 35.8697 40.8323 36.1347L31.9284 42.1948C32.0897 41.9906 34.6813 38.6735 36.3275 34.4292C36.8225 33.1598 37.2285 31.8076 37.4621 30.4222C37.64 29.3901 37.7179 28.3359 37.6567 27.2873C37.6011 26.3324 37.4343 25.3831 37.1117 24.4559C37.273 24.5939 37.4343 24.7319 37.59 24.8864C37.7346 25.0244 37.8847 25.1624 38.0293 25.3169C38.1294 25.4107 38.224 25.5101 38.313 25.6149L38.3297 25.6315C38.363 25.6646 38.3853 25.6922 38.4131 25.7253C38.5076 25.8247 38.5966 25.9295 38.6856 26.0454C38.7635 26.1227 38.8246 26.2 38.8858 26.2828C39.0248 26.4594 39.1583 26.636 39.2862 26.8237C39.5476 27.2045 39.7923 27.6184 40.0092 28.071C40.2817 28.6229 40.5042 29.2245 40.6822 29.8979C40.7433 30.1352 40.799 30.3781 40.8434 30.632C40.8824 30.8307 40.9213 31.0349 40.9491 31.2501C40.9547 31.3108 40.9658 31.3826 40.9714 31.4543C40.9936 31.6475 41.0103 31.8352 41.0325 32.0449C41.0325 32.1277 41.0381 32.2215 41.0492 32.3153C41.0659 32.6465 41.0715 32.9887 41.0715 33.3474L41.077 33.3419Z" fill="url(#paint8_linear_6051_13668)"/>
<path d="M37.1173 24.4504L36.3776 27.6957L34.7648 35.0087C33.569 35.4779 31.8061 36.2395 29.9096 37.2937L31.9395 32.5527L34.7981 28.2532L30.5658 19.4334L34.0751 21.6576C34.1752 21.7956 34.2698 21.9281 34.3699 22.0385C35.0095 22.8112 36.0495 23.5176 37.1228 24.4504H37.1173Z" fill="#110F22"/>
<path d="M34.7981 28.2531L27.3402 22.6676L24.1813 20.2944L23.247 19.7921L13.8314 6.65624L30.1487 19.1629L30.5547 19.4223L30.5658 19.4334L34.7981 28.2531Z" fill="url(#paint9_linear_6051_13668)"/>
<path d="M37.4732 30.4167C37.2396 31.802 36.8336 33.1543 36.3387 34.4237C36.3387 34.4237 35.738 34.6169 34.7648 35.0032L36.3776 27.6902L37.1173 24.4449C37.4398 25.3721 37.6122 26.3214 37.6623 27.2762C37.7235 28.3249 37.6456 29.3791 37.4676 30.4112L37.4732 30.4167Z" fill="#07101A"/>
<path d="M42.8344 23.7936V29.1031L41.0325 34.3685C41.0492 34.2029 41.0548 34.0318 41.0659 33.8718C41.0715 33.6896 41.0826 33.5185 41.0826 33.3419C41.0826 32.9832 41.077 32.6355 41.0603 32.3098C41.0548 32.216 41.0437 32.1277 41.0437 32.0394C41.0214 31.8352 41.0047 31.642 40.9825 31.4488C40.9769 31.3715 40.9658 31.3053 40.9602 31.2446C40.9269 31.0293 40.8935 30.8251 40.8546 30.6264C40.8101 30.3726 40.7545 30.1297 40.6933 29.8924C40.5153 29.219 40.2929 28.6174 40.0203 28.0655C39.8034 27.6129 39.5587 27.199 39.2974 26.8181C39.1639 26.625 39.036 26.4483 38.8969 26.2773C38.8358 26.1945 38.7746 26.1172 38.6967 26.0399C38.6522 25.9627 38.5799 25.8854 38.5187 25.8192C38.4854 25.7805 38.4576 25.7529 38.4242 25.7198C38.3908 25.6867 38.3686 25.6591 38.3408 25.626L38.3241 25.6094C38.2407 25.5101 38.1406 25.4052 38.0405 25.3114C37.8959 25.1568 37.7457 25.0189 37.6011 24.8809C37.3953 23.4955 37.1395 21.5693 36.8559 18.9145C36.8003 18.4013 36.7613 17.9211 36.7613 17.463L42.8456 23.7991L42.8344 23.7936Z" fill="#F9B218"/>
<path d="M29.9541 29.9972L24.3759 28.7168L17.4964 21.8618L24.4816 24.6325L29.9541 29.9972Z" fill="#E73E20"/>
</g>
<defs>
<linearGradient id="paint0_linear_6051_13668" x1="43.4573" y1="18.335" x2="42.5808" y2="26.1684" gradientUnits="userSpaceOnUse">
<stop stop-color="#50C0DA"/>
<stop offset="1" stop-color="#1B499A"/>
</linearGradient>
<linearGradient id="paint1_linear_6051_13668" x1="47.1502" y1="21.1498" x2="41.8718" y2="35.956" gradientUnits="userSpaceOnUse">
<stop stop-color="#50C0DA"/>
<stop offset="0.49" stop-color="#1B499A"/>
<stop offset="1" stop-color="#110F22"/>
</linearGradient>
<linearGradient id="paint2_linear_6051_13668" x1="13.0861" y1="41.7533" x2="33.6425" y2="31.1451" gradientUnits="userSpaceOnUse">
<stop stop-color="#1B499A"/>
<stop offset="1" stop-color="#110F22"/>
</linearGradient>
<linearGradient id="paint3_linear_6051_13668" x1="14.5433" y1="53.5369" x2="28.3942" y2="31.2105" gradientUnits="userSpaceOnUse">
<stop offset="0.23" stop-color="#50C0DA"/>
<stop offset="0.49" stop-color="#1B499A"/>
<stop offset="0.89" stop-color="#110F22"/>
</linearGradient>
<linearGradient id="paint4_linear_6051_13668" x1="18.9313" y1="59.277" x2="20.5582" y2="40.8294" gradientUnits="userSpaceOnUse">
<stop stop-color="#50C0DA"/>
<stop offset="1" stop-color="#1B499A"/>
</linearGradient>
<linearGradient id="paint5_linear_6051_13668" x1="-0.072299" y1="9.71944" x2="29.2374" y2="25.4414" gradientUnits="userSpaceOnUse">
<stop stop-color="#50C0DA"/>
<stop offset="0.49" stop-color="#1B499A"/>
<stop offset="1" stop-color="#110F22"/>
</linearGradient>
<linearGradient id="paint6_linear_6051_13668" x1="5.49474" y1="15.7189" x2="32.8034" y2="27.4929" gradientUnits="userSpaceOnUse">
<stop stop-color="#50C0DA"/>
<stop offset="0.49" stop-color="#1B499A"/>
<stop offset="1" stop-color="#110F22"/>
</linearGradient>
<linearGradient id="paint7_linear_6051_13668" x1="9.08188" y1="4.11186" x2="24.6127" y2="21.2897" gradientUnits="userSpaceOnUse">
<stop stop-color="#50C0DA"/>
<stop offset="0.49" stop-color="#1B499A"/>
<stop offset="1" stop-color="#110F22"/>
</linearGradient>
<linearGradient id="paint8_linear_6051_13668" x1="32.6013" y1="44.5626" x2="38.5097" y2="31.134" gradientUnits="userSpaceOnUse">
<stop stop-color="#50C0DA"/>
<stop offset="0.49" stop-color="#1B499A"/>
<stop offset="1" stop-color="#110F22"/>
</linearGradient>
<linearGradient id="paint9_linear_6051_13668" x1="19.5875" y1="9.0792" x2="27.6483" y2="21.5207" gradientUnits="userSpaceOnUse">
<stop stop-color="#50C0DA"/>
<stop offset="0.49" stop-color="#1B499A"/>
<stop offset="1" stop-color="#110F22"/>
</linearGradient>
<clipPath id="clip0_6051_13668">
<rect width="47" height="60" fill="white"/>
</clipPath>
</defs>
</svg>
